<?xml version="1.0" encoding="utf-8"?>
<!DOCTYPE svg PUBLIC "-//W3C//DTD SVG 1.1//EN" "http://www.w3.org/Graphics/SVG/1.1/DTD/svg11.dtd">
<svg version="1.1" id="Layer_1" xmlns="http://www.w3.org/2000/svg" xmlns:xlink="http://www.w3.org/1999/xlink" x="0px" y="0px"
	 viewBox="0 0 1920 1920" enable-background="new 0 0 1920 1920" xml:space="preserve">
<g id="_x23_ffffffff">
</g>
<g id="_x23_fffdf5ff">
</g>
<g>
	<g id="_x23_7d4f2bff">
		<path fill="#7D4F2B" stroke="#7D4F2B" stroke-width="0.0938" d="M400.97,181.01c51.83-4.49,104.42-9.94,156.13-1.36
			c34.78,5.65,69.08,18.92,95.69,42.51c28.06,24.41,46,58.5,56.26,93.84c14.15,48.94,16.14,100.46,13.92,151.07
			c-5.81,186.59-22.48,373.07-55.02,556.98c-1.51,7.3099-2.2,14.8199-4.27,21.99c-0.45,1.1899-0.94,2.37-1.4,3.58
			c-5.86,0-12.08-0.97-16.4301-5.24c3.69-20.55,7.37-41.11,10.7-61.73c-5.96-0.33-12.59-0.87-17.27-4.95
			c-2.11-1.51-0.8101-4.39,1.29-5.11c5.61-2.39,11.91-1.3701,17.77-0.6201c8.21-51.49,15.83-103.11,21.69-154.93
			c-5.7-0.67-12.47-1.2-16.34-6.0099c-0.93-5.4901,6.67-3.8701,9.23-6.7401l-0.4,1.25c3.02-0.03,6.04,0.14,9.06,0.38
			c6.31-54.56,11.81-109.22,16-163.99c-5.9-0.7-12.98-1.53-16.42-7.06c3.77-5.66,11.54-4.32,17.35-4.16
			c3.88-51.92,7.13-103.9,9.25-155.92c-6.55,0.09-13.65-0.48-19.08-4.52c-1.99-1.2-1.8-4.27,0.4-5.12
			c5.95-2.95,12.92-1.79,19.2-0.63c0.8799-24.14,2.27-48.33,0.64-72.48c-1.59-29.22-6.51-58.41-16.41-86.02
			c-5.38,0.94-11.12,3.01-16.48,0.94c-1.7-0.53-2.3701-2.74-1.3-4.14c3.11-4.3,8.5-5.88,13.33-7.42
			c-12.44-30.06-33.57-56.68-60.8-74.65c-16.34-10.98-34.65-18.74-53.5-24.24c-2.32,5.09-5.01,10.45-9.87,13.57
			c-1.55,1.06-4.13,0.85-4.53-1.3c-1.2-5.31,1.35-10.38,3.35-15.13c-50.44-11.4-102.85-8.5-153.66-1.26
			c0.82,5.93,2.15,12.34-0.75,17.93c-0.85,2.07-3.7,1.88-4.86,0.22c-3.85-4.48-4.69-10.65-5.23-16.34
			c-64.93,11.75-127.17,35.27-186.35,64.04c3.12,6.1,7.15,12.84,5.42,19.95c-0.98,2.5-4.12,1.52-5.62,0.11
			c-4.56-3.95-7.28-9.61-9.03-15.29c-25.91,12.76-51.08,26.98-75.88,41.76c-11.79,6.96-23.11,14.72-35.09,21.35
			c14.25-11.41,29.41-21.68,44.5-31.96c68.52-46.16,143.56-83.9,223.89-104.37C373.57,186.38,387.19,183.24,400.97,181.01z"/>
	</g>
	<g id="_x23_bb9c63ff">
		<path fill="#BB9C63" stroke="#BB9C63" stroke-width="0.0938" d="M903.96,538.03c1.87-3.1,5.47-4.6,8.98-4.77
			c13.55-0.97,26.9,2.19,40.05,5.03c25.5,5.86,50.59,13.29,75.97,19.65c8.5801,2.04,16.8101,5.31,25.3,7.7
			c16.97,5.25,34.0599,11.22,48.73,21.49c15.14,10.45,26.97,25.18,35.47,41.39c1.0901,1.99,2.01,4.08,2.74,6.24
			c-0.51-0.1-1.5299-0.3-2.0399-0.4c-5.4301,18.06-12.1,35.87-21.55,52.24c-7.38,12.7-16.87,24.47-29.16,32.69
			c-4.1899,2.59-8.5599,5.22-13.47,6.09c-1.63-1.46-1.91-3.85-2.79-5.76c-0.99,6.75-0.3899,13.58-0.62,20.37
			c-0.1399,5.04-0.47,10.08-0.6899,15.12c-4.13,0.07-8.36-0.17-12.37,1.01c-0.76,0.23-1.51,0.47-2.25,0.71
			c-0.1901-1.3-0.37-2.58-0.54-3.86c-5.47-0.73-11.15-0.98-16.5499,0.32c-0.4501-0.96-0.89-1.92-1.3101-2.86
			c6.4401,0.37,12.9,0.45,19.35,0.49c0.3201-7.72,0.2001-15.46-0.1-23.19c-23.61-0.59-47.08-3.82-70.22-8.43
			c-11.47-2.1-22.96-4.06-34.37-6.43c0.52-2.07,1-4.15,1.41-6.24c-3.27,3.62-4.66,8.37-6.63,12.73c-2.81,6.57-5.82,13.05-8.67,19.61
			c-3.55-0.96-7.03-2.1299-10.51-3.28c0.06-4.15-4.42-4.71-7.6-4.6c-4.17-4.47-10.64-4.36-16.16-5.6801
			c-1.82-0.35-1.77-2.7599-2.57-4.0099c8.69,2.8199,17.09,6.52,25.98,8.72c3.01-6.89,5.99-13.82,8.3-20.98
			c-24.74-7.33-49.12-16.22-72.05-28.14c-4.65-2.38-9.56-4.37-13.65-7.68c1.09-1.62,2.19-3.23,3.3-4.83
			c-0.45-0.49-0.88-0.97-1.31-1.45c-7.59,9.14-14.63,18.76-22.58,27.59c-3.35-1.52-6.19-3.96-9.51-5.52
			c-2.15-1.51-3.9-3.49-6.01-5.01c-2.59-1.33-5.75-1.41-8.01-3.38c-1.81-1.53-3.88-2.71-6.12-3.49c-0.19-1.31-0.36-2.62-0.51-3.91
			c7,4,13.67,8.92,21.3,11.64c5.16-6.12,9.95-12.6,14.59-19.14c-6.96-5.12-14.72-9.01-21.91-13.77
			c-6.0099,5.85-11.22,12.46-17,18.53c-0.09-1.13-0.1-2.24-0.11-3.35c3.27-1.68,4.28-5.58,7.12-7.77c0.25-1.64,0.51-3.26,0.75-4.89
			c3.58-2.23,7.56-3.62,11.67-4.53c4.06-0.73,6.11-4.58,8.52-7.48c3.64-4.36,7.38-8.67,11.57-12.52c1.42-1.23,2.08-3.0099,2.72-4.71
			c-0.44-0.17-1.34-0.5-1.79-0.67C860.42,596.63,883.09,567.99,903.96,538.03 M908.45,663.58c-5.18,1.43-6.72,9.17-2.1,12.16
			c4.16,3.65,12.28,1.18,12.5-4.71C919.59,665.56,913.36,661.54,908.45,663.58 M1015.27,695.36c-4.86,1.63-5.83,9.12-1.6,11.96
			c4.3,3.38,11.52,1.19,12.65-4.36C1027.34,697.19,1020.28,692.71,1015.27,695.36z"/>
		<path fill="#BB9C63" stroke="#BB9C63" stroke-width="0.0938" d="M889.03,1026.52c18.93,3.1699,38.78,2,56.71-5.15
			c15.22,1.83,30.16,6.78,43.68,14.0699c14.93,8.15,27.7,20.3401,36.1301,35.17c7.2699,12.74,11.6899,27,13.72,41.49
			c8.64,67.84,14.2,136.11,15.3099,204.49c0.05,3.5701,0.03,7.14,0.24,10.7101c-2.88-4.16-5.84-8.27-8.11-12.79
			c2.53-7.54,0.7101-16.52-5.49-21.74c-3.8199-3.64-9.22-4.26-14.1-5.48c-11.03-16.64-22.85-32.75-34.03-49.3
			c-2.31-3.3199-4.6201-7.26-8.81-8.35c-6.9301-2.16-15.83,5.13-12.41,12.42c4.63,8.1899,10.63,15.5299,15.75,23.4199
			c7.48,10.6,14.31,21.7001,22.44,31.8301c0.51,2.97-0.8,5.7999-1.08,8.73c-0.54,5.3999,1.49,10.9099,5.13,14.8999
			c2.1,2.2201,5.02,3.41,7.36,5.3701c0.71,3.7599,0.4,7.6299,0.48,11.4399c-55.64,0.3-111.29,0.22-166.93-0.26
			c-7.7-0.02-15.39-0.3-23.08,0.0701c-14.29,0.0499-28.58-0.54-42.86-0.8401c1.13-5.3099,2.77-10.49,4.06-15.75
			c9.81-35.89,23.71-70.9,43.42-102.5599c1.34-2.14,2.59-4.3301,3.79-6.53c13.06,3.23,26.38,5.79,39.89,5.65
			c1.67,5.49,3.04,13.2899,9.69,14.65c9.54,2.0699,19.39,1.6799,29.09,1.38c12.85-0.76,25.75-2.0801,38.25-5.28
			c4.76-1.4401,10.22-2.72,13.15-7.11c-7.07,2.7-14.21,5.3199-21.74,6.4099c-14.41,2.4701-29.06,3.53-43.67,3.17
			c-5.67-0.26-11.63-0.47-16.79-3.03c-3.34-2.74-4.55-7.1799-5.31-11.25c8.22-3.4299,15.1201-9.21,22.09-14.62
			c26.37-22.14,50.32-47.0599,72.39-73.46c7.72-9.4,15.21-19.01,21.62-29.36c3.4-5.88,7.31-12.22,6.5-19.3101
			c-0.35-8.0599-4.25-15.38-9.4-21.4c-4.6-6.74-10.52-12.6-17.51-16.84c-9.3199-4.9199-20.05-8.2-30.65-6.4199
			c-9.73,1.47-17.92,7.49-25.22,13.72c-5.5,4.6-7.43,11.83-9.7,18.33c-7.82,25.98-14,53.0701-28.8101,76.1901
			c-4.7,7.3899-10.14,14.4399-16.93,20.0299c-3.41,2.9501-8.18,0.7201-12.11,0.4401c-0.18-1.6901-0.37-3.38-0.48-5.04
			c0.8-11.22,0.95-22.48,2.23-33.66c2.11-0.5,4.49-0.49,6.31-1.83c3.09-2.52,2.81-7.76-0.14-10.27
			c-1.5699-0.84-3.3199-1.2-4.98-1.72c0.85-15.47,2.77-30.88,5.09-46.1899c2.45-0.3601,5.2-0.05,7.4-1.4
			c2.84-2.5801,2.47-7.55-0.09-10.2001c-1.59-1.0599-3.54-1.3199-5.32-1.87c1.37-9.5,3.36-18.89,5.05-28.33
			C876.61,1023.73,882.71,1025.73,889.03,1026.52 M922.33,1212.49c-3.71,2.04-4.37,7.6801-1.43,10.6801
			c3.64,3.61,11.33,1.2699,11.31-4.2301C933.11,1213.8,926.7,1209.85,922.33,1212.49 M830.41,1235.46
			c-3.94,2.7001-4.12,9.54,0.54,11.65c4.64,2.66,10.98-2.14,9.46-7.3199C839.56,1235.37,834.2,1233.39,830.41,1235.46
			 M870.21,1269.4c-0.73,4.83-0.12,9.76-0.15,14.64c0.09,10.4299,1.08,21.3199,6.36,30.5499c1.89,3.62,6.26,4.27,9.88,5
			c14.44,2.38,29.15,1.26,43.68,0.4301c11.85-1.04,23.75-2.4301,35.25-5.59c5.67-1.8501,12.13-3.26,15.84-8.39
			c-4.88,1.1599-9.29,3.72-14.18,4.84c-15.66,4.0699-31.85,5.6-47.97,6.34c-11.63,0.2101-23.5,0.64-34.85-2.2899
			c-4.72-0.9801-6.52-5.8601-8.12-9.8c-4.56-11.67-3.45-24.41-4.07-36.65C871.46,1268.71,870.63,1269.17,870.21,1269.4
			 M922.3,1295.36c-5.5,3.01-4.95,12.0701,1.02,14.25c5.96,3.2001,13.24-3.61,10.85-9.74
			C932.85,1294.85,926.59,1293.17,922.3,1295.36 M808.17,1298.33c-4.82,1.38-6.11,8.5601-2.01,11.49
			c3.84,3.5601,10.91,0.4501,10.7401-4.84C817.51,1300.3,812.43,1296.87,808.17,1298.33z"/>
	</g>
	<g id="_x23_b79c65ff">
		<path fill="#B79C65" stroke="#B79C65" stroke-width="0.0938" d="M818.32,646.3c6.37-7.1,12.36-14.55,18.73-21.64
			c0.45,0.17,1.35,0.5,1.79,0.67c-0.64,1.7-1.3,3.48-2.72,4.71c-4.19,3.85-7.93,8.16-11.57,12.52c-2.41,2.9-4.46,6.75-8.52,7.48
			c-4.11,0.91-8.09,2.3-11.67,4.53c-0.24,1.63-0.5,3.25-0.75,4.89c-2.84,2.19-3.85,6.09-7.12,7.77c0.01,1.11,0.02,2.22,0.11,3.35
			c0.95,0.96,1.95,1.88,3.02,2.74c0.15,1.29,0.32,2.6,0.51,3.91c2.24,0.78,4.31,1.96,6.12,3.49c2.26,1.97,5.42,2.05,8.01,3.38
			c2.11,1.52,3.86,3.5,6.01,5.01l-1.46,0.08c3.36,3.09,7.24,5.55,11.17,7.87c1.54-1.35,2.99-2.89,4.86-3.8
			c6.62,2.42,12.71,6.11,19.29,8.65c15.6,7.1801,31.7,13.1801,47.66,19.4901c0.8,1.25,0.75,3.66,2.57,4.0099
			c5.52,1.32,11.99,1.21,16.16,5.6801c3.18-0.11,7.66,0.45,7.6,4.6c-0.22,0.33-0.68,1-0.9,1.34c4.05,1.61,8.17,3.0699,12.44,4.04
			c1.04-1.83,2.09-3.65,3.16-5.46c13.28,3.17,26.58,6.28,40.07,8.43c0.27,2.67,0.55,5.35,0.85,8.04c0.34,5.55,2.34,12.15,8.27,13.98
			c2.22,1.27,4.29-0.88,5.71-2.37c4.02-4.67,2.73-11.24,2.91-16.88c3.75,0.49,7.52,1.12,11.33,0.94c0.6-2.49,0.53-5.07,0.56-7.6
			c1.6-1.34,3.23-2.64,4.79-4.02c-1.32,1.96-2.66,3.91-4.04,5.83c-0.15,7.23,0.59,14.65,3.53,21.34
			c1.59,3.89,5.93,6.64,10.1301,6.05c3.49-2.09,4.9299-6.43,4.7699-10.3199c-0.1699-4.66-0.9399-9.27-1.73-13.84
			c0.66,1.49,1.3301,3.04,2.4301,4.29c1.75,0.6,3.61,0.75,5.46,0.95c0.42,0.94,0.86,1.9,1.3101,2.86
			c5.3999-1.3,11.08-1.05,16.5499-0.32c0.17,1.28,0.35,2.5601,0.54,3.86c0.74-0.24,1.49-0.48,2.25-0.71
			c4.65,0.72,9.37,0.72,14.0599,0.53c0.1901-1.85,0.41-3.6801,0.63-5.51c4.5701-0.01,9.14-0.13,13.7101-0.44
			c8.2799-0.57,16.65-0.21,24.86-1.7c2.49-6.25,4.79-12.57,7.0499-18.9c-0.4099,1.33-0.08,2.38,1,3.14
			c12.2101,8.85,25.14,17.47,34.2001,29.76c2.37,3.3,4.66,8.83,1.0499,12.07c-4.23,3.25-9.6799,4.25-14.75,5.43
			c-16.0499,2.96-32.4199,3.58-48.7,3.98c-0.16,0.22-0.5,0.66-0.66,0.88c-5.26-1.27-10.6699-0.57-16-0.67
			c-28.6899,0.08-57.36-1.24-85.98-2.97c-22.4-1.59-44.83-3.27-67.02-6.8c-9.68-1.37-18.59-5.58-27.54-9.26
			c-12.09-5.0699-23.89-10.79-35.79-16.25c-23.02-11.25-45.69-23.2-67.93-35.9c-13.55-8.37-27.19-16.68-39.56-26.74
			c-5.11-4.53-10.67-9.07-13.5-15.44c-1.17-2.47-0.91-5.67,1.36-7.42c4.58-3.65,10.41-5.18,15.93-6.85
			c18.32-4.71,37.17-7.01,55.99-8.74C813.38,647.86,816.61,648.59,818.32,646.3z"/>
		<path fill="#B79C65" stroke="#B79C65" stroke-width="0.0938" d="M624.26,1445.96c13.28,1.13,26.59,2.28,39.92,2.38
			c-3.73,0.2201-7.47,0.4401-11.19,0.0901C643.42,1447.55,633.75,1447.52,624.26,1445.96z"/>
	</g>
	<g id="_x23_a2813eff">
		<path fill="#A2813E" stroke="#A2813E" stroke-width="0.0938" d="M1139.16,634.36c0.51,0.1,1.5299,0.3,2.0399,0.4
			c2.65,21.04-3.24,41.81-9.8099,61.58c-3.92,11.34-7.9,22.69-12.5701,33.7599c-2.2599,6.33-4.5599,12.65-7.0499,18.9
			c-8.21,1.49-16.5801,1.13-24.86,1.7c-4.5701,0.31-9.14,0.43-13.7101,0.44c-0.22,1.83-0.4399,3.66-0.63,5.51
			c-4.6899,0.19-9.4099,0.19-14.0599-0.53c4.01-1.18,8.24-0.94,12.37-1.01c0.22-5.04,0.55-10.08,0.6899-15.12
			c0.2301-6.79-0.37-13.62,0.62-20.37c0.88,1.91,1.16,4.3,2.79,5.76c4.91-0.87,9.28-3.5,13.47-6.09
			c12.29-8.22,21.78-19.99,29.16-32.69C1127.0601,670.23,1133.73,652.42,1139.16,634.36z"/>
		<path fill="#A2813E" stroke="#A2813E" stroke-width="0.0938" d="M796.6,670.58c5.78-6.07,10.9901-12.68,17-18.53
			c7.19,4.76,14.95,8.65,21.91,13.77c-4.64,6.54-9.43,13.02-14.59,19.14c-7.63-2.72-14.3-7.64-21.3-11.64
			C798.55,672.46,797.55,671.54,796.6,670.58z"/>
		<path fill="#A2813E" stroke="#A2813E" stroke-width="0.0938" d="M852.36,667.04c0.43,0.48,0.86,0.96,1.31,1.45
			c-1.11,1.6-2.21,3.21-3.3,4.83c4.09,3.31,9,5.3,13.65,7.68c22.93,11.92,47.31,20.81,72.05,28.14c-2.31,7.16-5.29,14.09-8.3,20.98
			c-8.89-2.2-17.29-5.9-25.98-8.72c-15.96-6.31-32.06-12.31-47.66-19.4901c-6.58-2.54-12.67-6.23-19.29-8.65
			c-1.8701,0.91-3.32,2.45-4.86,3.8c-3.93-2.32-7.81-4.78-11.17-7.87l1.46-0.08c3.32,1.56,6.16,4,9.51,5.52
			C837.73,685.8,844.77,676.18,852.36,667.04z"/>
		<path fill="#A2813E" stroke="#A2813E" stroke-width="0.0938" d="M947.3,719.36c1.97-4.36,3.36-9.11,6.63-12.73
			c-0.41,2.09-0.89,4.17-1.41,6.24c11.41,2.37,22.9,4.33,34.37,6.43c23.14,4.61,46.61,7.84,70.22,8.43
			c0.3,7.73,0.42,15.47,0.1,23.19c-6.45-0.04-12.9099-0.12-19.35-0.49c-1.85-0.2-3.71-0.35-5.46-0.95
			c-1.1-1.25-1.77-2.8-2.4301-4.29c-1.5499-5.53-6.3199-9.04-9.8799-13.21c-0.9301,1.38-1.83,2.78-2.78,4.15
			c-1.56,1.38-3.19,2.68-4.79,4.02c-0.03,2.53,0.04,5.11-0.56,7.6c-3.81,0.18-7.58-0.45-11.33-0.94c-0.14-3.22,0.02-6.77-2.05-9.47
			c-2.34-3.2-4.7-6.41-6.29-10.07c-2.12,4.06-5.63,7.1-8.18,10.84c-0.88,4.59-0.49,9.32-0.37,13.97c-0.3-2.69-0.58-5.37-0.85-8.04
			c-13.49-2.15-26.79-5.2599-40.07-8.43c-1.07,1.81-2.12,3.63-3.16,5.46c-4.27-0.97-8.39-2.43-12.44-4.04
			c0.22-0.34,0.6801-1.01,0.9-1.34c3.48,1.15,6.96,2.32,10.51,3.28C941.48,732.41,944.49,725.93,947.3,719.36z"/>
	</g>
	<g id="_x23_73584cff">
		<path fill="#73584C" stroke="#73584C" stroke-width="0.0938" d="M908.45,663.58c4.91-2.04,11.14,1.98,10.4,7.45
			c-0.22,5.89-8.34,8.36-12.5,4.71C901.73,672.75,903.27,665.01,908.45,663.58z"/>
	</g>
	<g id="_x23_73594bff">
		<path fill="#73594B" stroke="#73594B" stroke-width="0.0938" d="M1015.27,695.36c5.01-2.65,12.0699,1.83,11.0499,7.6
			c-1.13,5.55-8.35,7.74-12.65,4.36C1009.44,704.48,1010.41,696.99,1015.27,695.36z"/>
	</g>
	<g id="_x23_73584dff">
		<path fill="#73584D" stroke="#73584D" stroke-width="0.0938" d="M790.7,713.51c22.24,12.7,44.91,24.65,67.93,35.9
			c-1.63,0.57-3.26,1.11-4.9,1.64c-0.18-0.76-0.35-1.52-0.52-2.26c-4.7401-1.46-9.17-3.69-13.47-6.1c-2.39-1.42-5.23-1.19-7.89-1.2
			c1.54,2,3.63,3.82,4.1,6.43c0.49,2.08,0.81,4.25,1.93,6.13c9.76,17.99,25.87,31.09,40.35,45.08
			c-17.52-8.83-34.25-19.44-49.03-32.4c-13.32-11.7-24.58-25.72-32.94-41.37C794.25,721.48,792.19,717.61,790.7,713.51z"/>
		<path fill="#73584D" stroke="#73584D" stroke-width="0.0938" d="M971.87,1242.0601c-3.42-7.29,5.48-14.5801,12.41-12.42
			c4.1899,1.09,6.5,5.03,8.81,8.35c11.18,16.55,23,32.66,34.03,49.3c-5.61,1.5299-11.15,3.84-14.98,8.4099
			c-0.5,0.02-1.5,0.05-2.01,0.0601c-0.01,0.39-0.05,1.17-0.07,1.55c-8.13-10.13-14.96-21.2301-22.44-31.8301
			C982.5,1257.59,976.5,1250.25,971.87,1242.0601z"/>
	</g>
	<g id="_x23_f8d9baff">
		<path fill="#F8D9BA" stroke="#F8D9BA" stroke-width="0.0938" d="M790.96,737.99c1.83-4.19,2.65-8.83,5.3-12.63
			c8.36,15.65,19.62,29.67,32.94,41.37c14.78,12.96,31.51,23.57,49.03,32.4c-14.48-13.99-30.59-27.09-40.35-45.08l-0.29-1.32
			c29.08,19.28,62.05,31.5,94.86,42.82c-6.54,20.13-6.58,41.86-2.41,62.47c3.98,20.53,11.45,40.13,17.84,59.98
			c4.43,14.01,8.53,28.31,9.28,43.06c-4.72,0.67-9.53-0.11-14.19,0.97c-4.81,1.1299-9.78,0.86-14.64,1.5
			c-8.72,1.31-17.49,2.36-26.3,2.6c-4.1,0.09-8.1,1.02-12.14,1.49c-12.31,1.19-24.64,2.09-36.98,2.77
			c-1.8199-0.06-3.2599,1.07-4.65,2.08c-1.04-0.45-1.97-1.3199-3.15-1.18c-29.75,0.85-59.96,1.71-89.12-5.28
			c-3.88-1.08-8.24-1.9-10.93-5.18c-5.36-5.9-6.14-14.26-6.37-21.86c-0.04-8.37,0.79-16.74,2.27-24.97
			c4.78,4.57,11.99,3.79,18.0099,3.03c11.01-2.05,21.52-6.3,31.48-11.36c0.88-0.46,1.79-0.9,2.7-1.33
			c-9.36-3.38-18.33-7.71-27.1-12.36c-6.22-3-12.21-6.72-19.03-8.18c1.49-8.66,3.78-17.16,5.17-25.83
			c0.83-2.42-1.47-3.8799-3.06-5.16c-4.97-3.66-9.01-8.43-12.49-13.49c-0.88-1.72-2.75-3.99-1.04-5.74
			c6.16-8.14,13.16-15.68,18.67-24.3C769.55,787.25,781.28,762.94,790.96,737.99 M826.35,810.59
			c-3.36,2.3199-2.3199,8.21,1.6801,9.15c3.48,1.23,7.28-2.11,6.66-5.68C834.34,810.25,829.34,808.11,826.35,810.59 M848.39,857.44
			c-13.19,3.19-24.8,13.27-28.68,26.43c-2.26,10.8-1.6,23.06,5.48,32.04c9.43,14.33,29.45,20.22,45.14,13.4
			c9.29-3.46,16.91-11.11,20.62-20.28c4.18-9.66,3.94-21.0601-0.38-30.61c-3.38-5.7-6.96-11.8-12.98-15.06
			C869.08,857.67,858.45,855.55,848.39,857.44z"/>
	</g>
	<g id="_x23_974142ff">
		<path fill="#974142" stroke="#974142" stroke-width="0.0938" d="M984.11,738.11c2.55-3.74,6.06-6.78,8.18-10.84
			c1.59,3.66,3.95,6.87,6.29,10.07c2.07,2.7,1.91,6.25,2.05,9.47c-0.18,5.64,1.11,12.21-2.91,16.88c-1.42,1.49-3.49,3.64-5.71,2.37
			c-5.93-1.83-7.93-8.43-8.27-13.98C983.62,747.43,983.23,742.7,984.11,738.11z"/>
	</g>
	<g id="_x23_405f7cff">
		<path fill="#405F7C" stroke="#405F7C" stroke-width="0.0938" d="M1017.31,736.13c0.95-1.37,1.85-2.77,2.78-4.15
			c3.56,4.17,8.33,7.68,9.8799,13.21c0.79,4.57,1.5601,9.18,1.73,13.84c0.16,3.89-1.2799,8.23-4.7699,10.3199
			c-4.2001,0.59-8.54-2.16-10.1301-6.05c-2.94-6.69-3.68-14.11-3.53-21.34C1014.65,740.04,1015.99,738.09,1017.31,736.13z"/>
	</g>
	<g id="_x23_735d50ff">
		<path fill="#735D50" stroke="#735D50" stroke-width="0.0938" d="M831.85,741.49c2.66,0.01,5.5-0.22,7.89,1.2
			c4.3,2.41,8.73,4.64,13.47,6.1c0.17,0.7401,0.34,1.5,0.52,2.26c1.64-0.53,3.27-1.07,4.9-1.64c11.9,5.46,23.7,11.1801,35.79,16.25
			c8.95,3.6801,17.86,7.89,27.54,9.26c22.19,3.53,44.62,5.21,67.02,6.8c28.62,1.73,57.29,3.05,85.98,2.97
			c5.3301,0.1,10.74-0.6,16,0.67c-16.37,35.56-39.74,67.25-63.6499,98.02c-22.9001,29.39-46.97,57.86-69.97,87.18
			c0.06-3.17-0.05-6.34-0.1801-9.5c-0.75-14.75-4.85-29.05-9.28-43.06c-6.39-19.85-13.86-39.45-17.84-59.98
			c-4.17-20.61-4.13-42.34,2.41-62.47c-32.81-11.32-65.78-23.54-94.86-42.82l0.29,1.32c-1.12-1.88-1.44-4.05-1.93-6.13
			C835.48,745.31,833.39,743.49,831.85,741.49z"/>
		<path fill="#735D50" stroke="#735D50" stroke-width="0.0938" d="M1011.53,1301.2c3.5699-6.5,9.95-11.8099,17.72-11.58
			c2.95,4.97,6.9399,9.22,9.9399,14.17c1.92,3.21,4.1101,6.25,6.5,9.1499c0.26,0.39,0.76,1.17,1.02,1.5701
			c2.27,4.52,5.23,8.63,8.11,12.79c2.17,3.85,4.63,7.5399,7.4301,10.99c4.6801,6.1599,8.47,12.95,13.05,19.2
			c5.6599,7.9,9.9399,16.65,15.34,24.74c3.16,5.5701,7.0499,10.7001,9.98,16.41c0.85,0.04,1.7,0.09,2.58,0.16
			c5.0801,9.8999,11.9301,18.75,17.8301,28.1599c4.6899,6.48,8.0699,13.77,12.65,20.3401c2.0699,2.85,3.33,6.8199,7,8.0299
			c-0.13,0.4301-0.41,1.29-0.55,1.7101c11.76,17.96,23.62,35.84,35.41,53.7799c7.2999,10.9,14.46,21.89,21.59,32.91
			c7.4,10.78,14.3,21.91,21.83,32.6c0.2001-4.8999-0.0499-9.85,1.01-14.6599c-0.22,7.1-1.62,15.2999,3.01,21.37
			c3.23,4.61,6.0701,9.5,9.6801,13.85c3.8199,7.14,8.8099,13.5499,13.0699,20.4299c4.6901,7.27,9.47,14.5,14.3201,21.6801
			c1.6699,2.7,5.12,2.84,7.9199,3.55c-1.6699-0.02-3.39-0.1001-5.01-0.04c2.36,5.77,6.5901,10.45,9.78,15.76
			c3.73,6.0699,8.11,11.75,11.42,18.08c-8.38,2.5601-17.36,2.72-25.77,0.23c-6.71-10.35-13.21-20.86-20.46-30.84
			c-4.12-5.1799-7.27-11.01-10.67-16.66c-16.25-24.85-32.71-49.5699-48.87-74.47c-0.87-1.46-2.12-2.6-3.8101-2.86
			c0.13-0.45,0.39-1.35,0.53-1.79c-3.97-6.9099-8.65-13.36-13.04-19.99c-5.2699-8.36-10.7799-16.5599-16.37-24.6899
			c-9.73-15.78-20.4299-30.9401-30.33-46.62c-2.01-4.3401-7.65-2.63-11.46-3c2.72-0.16,5.4399-0.48,8.1699-0.77
			c-8.9299-14.55-18.64-28.6-27.8999-42.9401c-2.6001-3.9299-5.4501-7.71-7.52-11.96c-16.6-26.39-34.27-52.13-51.29-78.25
			c-3.49-5.01-7-10.03-9.82-15.4399C1014.54,1304.35,1013.04,1302.74,1011.53,1301.2z"/>
	</g>
	<g id="_x23_574726ff">
		<path fill="#574726" stroke="#574726" stroke-width="0.0938" d="M826.35,810.59c2.9901-2.48,7.9901-0.34,8.34,3.47
			c0.62,3.57-3.18,6.91-6.66,5.68C824.03,818.8,822.99,812.91,826.35,810.59z"/>
	</g>
	<g id="_x23_f9c6b5ff">
		<path fill="#F9C6B5" stroke="#F9C6B5" stroke-width="0.0938" d="M848.39,857.44c10.06-1.89,20.69,0.23,29.2,5.92
			c6.02,3.26,9.6,9.36,12.98,15.06c4.32,9.55,4.56,20.95,0.38,30.61c-3.71,9.17-11.33,16.8199-20.62,20.28
			c-15.69,6.82-35.71,0.93-45.14-13.4c-7.08-8.98-7.74-21.24-5.48-32.04C823.59,870.71,835.2,860.63,848.39,857.44z"/>
	</g>
	<g id="_x23_eca285ff">
		<path fill="#ECA285" stroke="#ECA285" stroke-width="0.0938" d="M747.02,883.8c6.82,1.46,12.81,5.18,19.03,8.18
			c8.77,4.65,17.74,8.98,27.1,12.36c-0.91,0.43-1.82,0.87-2.7,1.33c-6.07-1.31-12.27-1.46-18.44-1.62
			c-9.75-0.26-19.24-2.72-28.79-4.46c0.1201-2.86-0.0099-5.7401,0.26-8.58C743.74,888.25,745.58,886.04,747.02,883.8z"/>
	</g>
	<g id="_x23_e88f71ff">
		<path fill="#E88F71" stroke="#E88F71" stroke-width="0.0938" d="M743.22,899.59c9.55,1.74,19.04,4.2,28.79,4.46
			c6.17,0.16,12.37,0.31,18.44,1.62c-9.96,5.06-20.47,9.31-31.48,11.36c-6.02,0.7599-13.23,1.54-18.0099-3.03
			C740.29,909.13,740.12,903.73,743.22,899.59z"/>
	</g>
	<g id="_x23_f6d0a9ff">
		<path fill="#F6D0A9" stroke="#F6D0A9" stroke-width="0.0938" d="M942.97,962.03c4.66-1.08,9.47-0.3,14.19-0.97
			c0.13,3.16,0.2401,6.33,0.1801,9.5c-0.66,3.24-1.86,6.37-3.01,9.47c-1.82,1.85-3.74,4.59-6.68,4.22
			c-19.89-1.87-39.64,3.33-58.03,10.49c-6.03,3.06-12.86,4.42-18.36,8.51c-2.24,1.83-4.66-0.71-6.43-2.01
			c-4.36-10.22-10.29-19.63-16.57-28.77c1.39-1.0099,2.83-2.14,4.65-2.08c12.34-0.68,24.67-1.58,36.98-2.77
			c4.04-0.47,8.04-1.4,12.14-1.49c8.81-0.24,17.58-1.29,26.3-2.6C933.19,962.89,938.16,963.16,942.97,962.03z"/>
	</g>
	<g id="_x23_f8dab6ff">
		<path fill="#F8DAB6" stroke="#F8DAB6" stroke-width="0.0938" d="M947.65,984.25c2.94,0.37,4.86-2.37,6.68-4.22
			c-3.88,13.54-7.24,27.28-8.59,41.34c-17.93,7.15-37.78,8.3199-56.71,5.15c-6.32-0.79-12.42-2.79-18.78-3.26
			c-0.38-7.63-3.1-14.82-5.42-22.02c1.77,1.3,4.19,3.84,6.43,2.01c5.5-4.09,12.33-5.45,18.36-8.51
			C908.01,987.58,927.76,982.38,947.65,984.25z"/>
		<path fill="#F8DAB6" stroke="#F8DAB6" stroke-width="0.0938" d="M630.56,1094.53c2.05-0.13,4.08-0.24,6.14-0.28
			c-0.26,1.89-0.48,3.8-0.7,5.72c7.58,2.86,14.65,6.8301,21.84,10.52c0.5099-4.2,1.0699-8.39,1.59-12.58
			c3.32,1.49,6.06,3.9299,8.41,6.6799c-0.84,0.91-1.66,1.85-2.4901,2.79c2.61,4.14,4.83,8.5699,7.84,12.4399
			c4.29,3.64,9.83,5.41,14.34,8.7401c1.08,1.2799,1.5,2.96,2.1899,4.49c-2.2,9.58-4.72,19.1-6.34,28.7999
			c-0.25-0.89-0.5-1.76-0.74-2.61c-5.21-0.85-10.42,0.3201-15.63,0.4301c-4.89,0.14-9.76,0.61-14.65,0.7899
			c-0.4,1.5-0.8,3.02-1.19,4.55c0.13-1.52,0.26-3.02,0.39-4.51c-8.09,0.4399-16.2,0.75-24.3,0.5699
			c-4.72-0.2999-9.49-0.4399-14.11-1.47c-3.7-1.03-4.38-5.4399-4.72-8.6899c-0.62-12.26,2.35-24.4601,6.7-35.8401
			C618.14,1106.88,623.84,1099.97,630.56,1094.53z"/>
		<path fill="#F8DAB6" stroke="#F8DAB6" stroke-width="0.0938" d="M544.35,1217.16c7.22-3.15,14.69-6.4,22.69-6.63
			c5.66-0.0701,10,4.09,14.35,7.15c8.85,7.08,17.1,14.9299,24.49,23.5399c5.69,5.6801,10.85,11.85,16.14,17.89
			c0.77,0.9301,1.53,1.88,2,3.04c0.22,1.9,1.08,4.53-0.88,5.86c-2.3,1.77-4.88,3.15-7.17,4.96
			c-7.4399,6.0901-15.62,11.22-22.8199,17.61c-2.77,0.54-5.47-0.3199-7.54-2.1799c-3.77-3.28-8.92-3.6901-13.34-5.65
			c-2.36-1.1899-4.71,0.66-6.94,1.33c-3.32-3.11-6.54-6.5499-10.72-8.48c-1.72-0.85-3.38,0.41-4.73,1.35
			c0.94,0.9801,1.96,1.88,2.99,2.8c0.88,1.1801,1.72,2.41,2.57,3.64c2.4,0.64,4.73,1.58,6.73,3.09c0.91-0.08,1.83-0.14,2.75-0.1899
			c-1.12,2.58-2.37,5.2-4.58,7.0599c-6.55,5.36-8.91,14.29-15.8,19.3301c-0.87,5.4199-4.28,9.85-6.08,14.9399
			c-1.13,0.6-2.26,1.21-3.38,1.84c1.04,0.49,2.08,0.99,3.16,1.48c-7.39-0.08-14.77-0.2999-22.15-0.4399
			c0.45,2.27,0.92,4.5601,1.47,6.84c-0.69-1.4399-1.44-2.8099-2.17-4.1899c-7.49,15.4399-14.88,30.96-22.93,46.11
			c-0.29-1.5-0.58-2.97-0.87-4.4301c-3.8,3.78-5.69,8.87-8.5,13.3301c-5.86,8.62-10.96,17.71-16.21,26.7
			c-3.81,7.62-9.37,14.15-13.33,21.6901c-3.32,6.4299-7.86,12.08-11.89,18.0599c-6.95,9.21-11.72,19.91-19.48,28.51
			c-3.56,6-8.9,11.12-11.05,17.84c1.02,3.92,3.28,7.37,4.79,11.12c2.13,4.66,2.8,9.8201,3.02,14.9c0.23,3.09-0.91,6.53-3.54,8.3301
			c-9.39,4.7599-19.93,6.3899-29.57,10.5099c-18.26,7.27-36.81,14.13-53.74,24.2401c-3.11,1.8899-5.63,4.62-8.92,6.25
			c-5.07,2.6299-9.24,6.61-13.73,10.09c-2.02,1.26-2.34,3.66-2.7,5.83c-6.79,4.11-12.09,10.16-18.65,14.5801
			c-7.01,2.74-14.26-0.7301-19.77-5.03c-3.58-3.1901-6.55-7.05-8.43-11.47c2.05-0.4801,4.12-0.92,6.16-1.4401
			c-1.23,1.05-2.43,2.16-3.62,3.29c2.06,2.86,4.9,6.1,8.83,5.46c2.8-0.5,6.94-0.03,7.96-3.41c1.51-3.09,3.37-6.61,1.7-10.02
			c1.02-1.1399,2.07-2.24,3.15-3.2899c18.22-12.91,36.46-25.86,53.33-40.53c4.81-3.9301,9.5-8.01,14.02-12.27
			c10.34-9.5399,20.44-19.4199,29.24-30.4199c2.99-3.6001,4-8.26,5.55-12.54c2.57-7.3101,4.96-14.6801,7.34-22.04
			c13.8-42.26,26.24-84.95,40.29-127.14c0.9-2.6699,1.71-5.37,2.49-8.0699c-0.54-0.22-1.61-0.6801-2.15-0.9
			c4.54-2.5699,5.75-7.87,7.32-12.41c2.02-6.34,5.01-12.38,6.41-18.9099c-8.43,5.88-15.71,13.2-23.99,19.2699
			c-7.02,5.6901-14.43,10.8601-21.72,16.2001c-9.22,7.64-20.46,12.13-30.32,18.7999c-5.34,5.6001-7.83,14.2301-15.21,17.7401
			c-3.49,1.6499-6.13-1.8601-8.7-3.62c-5.45-3.91-10.71-8.15-16.58-11.4401c-4.59-2.6-8.6-6.08-13.05-8.88
			c-5.07-3.34-10.44-6.1799-15.65-9.26c-1.91-1.29-4.24-1.04-6.41-1.0499c-2.45-0.14-4.26-2.2001-6.31-3.3301
			c-17.2-11.02-35.61-19.9399-53.79-29.1899c-3.36-1.8201-6.95-3.75-8.91-7.1801c-4.26-6.03-3.8-13.9399-2.46-20.8199
			c2.79-6.5701,9.04-10.87,15.36-13.6801c1.66,7.1,2.68,14.42,5.49,21.21c1.81,3.9401,6.32,5.3301,10.03,6.88
			c7.92,2.8301,15.3,6.9801,23.33,9.55c13.09,5.63,26.42,10.67,39.84,15.47c11.82,4.02,23.77,8.29,36.24,9.64
			c7.78-2.08,14.59-6.78,21.86-10.1699c16.27-8.7301,32.71-17.1101,48.98-25.8301c8.55-5.15,17.28-10,25.85-15.11
			c3.63-2.25,8.11-3.86,10.16-7.9c3.23-5.8099,6.35-12.21,12.02-16.02c4.56-2.84,9.28,1.25,13.99,1.1801
			c4.71-1.66,8.63-4.95,13.05-7.2C514.96,1232.13,529.5,1224.3199,544.35,1217.16z"/>
	</g>
	<g id="_x23_9c7f3dff">
		<path fill="#9C7F3D" stroke="#9C7F3D" stroke-width="0.0938" d="M922.73,1048.78c7.3-6.23,15.49-12.25,25.22-13.72
			c10.6-1.78,21.33,1.5,30.65,6.4199c6.9901,4.24,12.91,10.1,17.51,16.84c-3.44,4.15-4.99,9.4-7.84,13.92
			c-2.99,4.79-5.36,9.95-8.56,14.62c-4.36,6.04-7.37,12.9501-11.9901,18.8201c-11.34,17.96-24.41,34.73-37.91,51.1
			c-4.96,5.72-9.62,11.71-15.04,17.01c-6.19,6.12-12.33,12.2999-18.48,18.46c-6.41,5.65-13.17,10.9-19.97,16.0699
			c-5.52,3.38-12.21,0.89-18.19,0.51c-7.17-0.4199-14.06-2.58-21.14-3.6499c-5.99-0.8201-11.29-4.28-17.37-4.6001
			c-4.46-0.25-8.52-2.22-12.81-3.2c-3.07-0.7-6.04-1.76-8.93-2.98c-5.38,1.15-9.82-3.04-15.05-3.12
			c-1.88-0.52-2.22,1.6699-3.05,2.8199c-32.21-10.53-64.1-22-96.4-32.25c1.62-9.7,4.14-19.22,6.34-28.7999
			c0.53-2.37,1.02-4.74,1.55-7.1001c4.52,1.04,8.94,2.4801,13.35,3.9301c6.89,1.67,13.47,4.4,20.39,5.99
			c5.77,1.36,11.24,3.71,17.01,5.09c21.23,5.4401,42.36,11.38,63.98,15.13c13.22,2.9,26.73,4.11,40.01,6.65
			c2.54,0.37,5.12,0.5601,7.7,0.75c0.33-1.6,0.7-3.1799,0.99-4.76c0.11,1.66,0.3,3.35,0.48,5.04c3.93,0.28,8.7,2.51,12.11-0.4401
			c6.79-5.59,12.23-12.64,16.93-20.0299c14.8101-23.12,20.9901-50.2101,28.8101-76.1901
			C915.3,1060.61,917.23,1053.38,922.73,1048.78z"/>
	</g>
	<g id="_x23_867267ff">
		<path fill="#867267" stroke="#867267" stroke-width="0.0938" d="M644.07,1042.91c0.45,0.37,1.33,1.1,1.78,1.47
			c4.35,4.27,10.57,5.24,16.4301,5.24c0.46-1.21,0.95-2.39,1.4-3.58c0.37,1.3199,0.86,2.62,1.53,3.85
			c-1.84,16.02-3.95,32-5.78,48.02c-0.52,4.1899-1.08,8.38-1.59,12.58c-7.19-3.6899-14.26-7.66-21.84-10.52
			c0.22-1.9199,0.44-3.83,0.7-5.72C639.28,1077.15,641.69,1060.03,644.07,1042.91z"/>
	</g>
	<g id="_x23_927635ff">
		<path fill="#927635" stroke="#927635" stroke-width="0.0938" d="M865.2,1051.59c1.78,0.55,3.73,0.8101,5.32,1.87
			c2.56,2.65,2.93,7.62,0.09,10.2001c-2.2,1.35-4.95,1.0399-7.4,1.4c-2.32,15.3099-4.2401,30.72-5.09,46.1899
			c1.66,0.52,3.41,0.88,4.98,1.72c2.95,2.51,3.23,7.75,0.14,10.27c-1.82,1.34-4.2,1.33-6.31,1.83
			c-1.28,11.1801-1.43,22.4401-2.23,33.66c-0.29,1.5801-0.66,3.16-0.99,4.76c-2.58-0.1899-5.16-0.38-7.7-0.75
			c-13.28-2.54-26.79-3.75-40.01-6.65c-21.62-3.75-42.75-9.6899-63.98-15.13c-5.77-1.38-11.24-3.73-17.01-5.09
			c-6.92-1.59-13.5-4.3199-20.39-5.99c0.43-2.47,0.86-4.92,1.31-7.37l0.28-1.52c45.0099,7.97,90.04,16.4,135.58,20.6901
			c2.72-19.7101,5.89-39.4301,11.25-58.6101c1.96-6.7599,4.16-13.48,7.14-19.86C861.88,1059.34,864.55,1055.86,865.2,1051.59z"/>
	</g>
	<g id="_x23_987938ff">
		<path fill="#987938" stroke="#987938" stroke-width="0.0938" d="M988.27,1072.24c2.85-4.52,4.4-9.77,7.84-13.92
			c5.15,6.02,9.05,13.3401,9.4,21.4c0.81,7.0901-3.1,13.4301-6.5,19.3101c-6.41,10.35-13.9,19.96-21.62,29.36
			c-22.07,26.4-46.02,51.3199-72.39,73.46c-6.97,5.41-13.87,11.1901-22.09,14.62c0.76,4.0701,1.97,8.51,5.31,11.25
			c5.16,2.5601,11.1201,2.77,16.79,3.03c14.61,0.36,29.26-0.7,43.67-3.17c7.53-1.09,14.67-3.71,21.74-6.4099
			c-2.93,4.39-8.39,5.6699-13.15,7.11c-12.5,3.2-25.4,4.52-38.25,5.28c-9.7,0.2999-19.55,0.6899-29.09-1.38
			c-6.65-1.3601-8.02-9.16-9.69-14.65c-13.51,0.14-26.83-2.42-39.89-5.65c-20.47-4.95-40.52-11.4-60.5699-17.78
			c0.83-1.15,1.17-3.34,3.05-2.8199c5.23,0.08,9.67,4.27,15.05,3.12c2.89,1.22,5.86,2.28,8.93,2.98c4.29,0.98,8.35,2.95,12.81,3.2
			c6.08,0.3201,11.38,3.78,17.37,4.6001c7.08,1.0699,13.97,3.23,21.14,3.6499c5.98,0.38,12.67,2.87,18.19-0.51
			c6.8-5.1699,13.56-10.4199,19.97-16.0699c6.15-6.16,12.29-12.34,18.48-18.46c5.42-5.3,10.08-11.29,15.04-17.01
			c13.5-16.37,26.57-33.14,37.91-51.1c4.6201-5.87,7.63-12.78,11.9901-18.8201C982.91,1082.1899,985.28,1077.03,988.27,1072.24z"/>
		<path fill="#987938" stroke="#987938" stroke-width="0.0938" d="M922.3,1295.36c4.29-2.1899,10.55-0.51,11.87,4.51
			c2.39,6.13-4.89,12.9401-10.85,9.74C917.35,1307.4301,916.8,1298.37,922.3,1295.36z"/>
		<path fill="#987938" stroke="#987938" stroke-width="0.0938" d="M808.17,1298.33c4.26-1.46,9.34,1.9701,8.73,6.65
			c0.17,5.29-6.9,8.4-10.7401,4.84C802.06,1306.89,803.35,1299.71,808.17,1298.33z"/>
	</g>
	<g id="_x23_f4d1a8ff">
		<path fill="#F4D1A8" stroke="#F4D1A8" stroke-width="0.0938" d="M665.35,1107.38c0.83-0.9401,1.65-1.88,2.4901-2.79
			c6.5,5.03,11.79,12.03,19.86,14.66c5.88,1.84,11.96,4.01,18.23,3.26c-0.45,2.45-0.88,4.9-1.31,7.37
			c-4.41-1.45-8.83-2.89-13.35-3.9301c-0.53,2.3601-1.02,4.7301-1.55,7.1001c-0.6899-1.53-1.11-3.2101-2.1899-4.49
			c-4.51-3.3301-10.05-5.1001-14.34-8.7401C670.18,1115.95,667.96,1111.52,665.35,1107.38z"/>
		<path fill="#F4D1A8" stroke="#F4D1A8" stroke-width="0.0938" d="M266.05,1588.87c6.09-2.47,12.38-4.55,18.02-7.97
			c-1.08,1.0499-2.13,2.15-3.15,3.2899c1.67,3.41-0.19,6.9301-1.7,10.02c-1.02,3.38-5.16,2.91-7.96,3.41
			c-3.93,0.64-6.77-2.6-8.83-5.46C263.62,1591.03,264.82,1589.92,266.05,1588.87z"/>
	</g>
	<g id="_x23_867367ff">
		<path fill="#867367" stroke="#867367" stroke-width="0.0938" d="M627.26,1161.0699c8.1,0.1801,16.21-0.13,24.3-0.5699
			c-0.13,1.49-0.26,2.99-0.39,4.51c-0.22,2.23-0.49,4.46-0.72,6.71c-8.11,2.4301-17.34,1.26-24.26-3.74
			C626.57,1165.67,626.91,1163.36,627.26,1161.0699z"/>
	</g>
	<g id="_x23_977938ff">
		<path fill="#977938" stroke="#977938" stroke-width="0.0938" d="M922.33,1212.49c4.37-2.64,10.78,1.3101,9.88,6.45
			c0.02,5.5-7.67,7.8401-11.31,4.2301C917.96,1220.17,918.62,1214.53,922.33,1212.49z"/>
	</g>
	<g id="_x23_977937ff">
		<path fill="#977937" stroke="#977937" stroke-width="0.0938" d="M830.41,1235.46c3.79-2.0699,9.15-0.09,10,4.3301
			c1.52,5.1799-4.8199,9.98-9.46,7.3199C826.29,1245,826.47,1238.16,830.41,1235.46z"/>
	</g>
	<g id="_x23_f6dec6ff">
		<path fill="#F6DEC6" stroke="#F6DEC6" stroke-width="0.0938" d="M624.02,1262.15c2.1,1.87,4.69,1.5699,7.12,0.53
			c3.35,3.0499,6.43,6.4099,9.68,9.59c2.05,2.12,4.65,4.13,4.95,7.3099c-8.91,4.4-16.54,10.88-24.63,16.5601
			c-2.14,1.4399-4.06,3.17-5.81,5.0699c-5.59,1.29-10.16-3.27-15.1-5.1c-2.43-1.77-4.72-3.7-7.08-5.53
			c7.2-6.39,15.38-11.5199,22.8199-17.61c2.29-1.8099,4.8701-3.1899,7.17-4.96C625.1,1266.6801,624.24,1264.05,624.02,1262.15z"/>
	</g>
	<g id="_x23_97793aff">
		<path fill="#97793A" stroke="#97793A" stroke-width="0.0938" d="M870.21,1269.4c0.42-0.23,1.25-0.6901,1.67-0.92
			c0.62,12.24-0.49,24.98,4.07,36.65c1.6,3.9399,3.4,8.8199,8.12,9.8c11.35,2.9299,23.22,2.5,34.85,2.2899
			c16.12-0.74,32.31-2.27,47.97-6.34c4.89-1.12,9.3-3.6801,14.18-4.84c-3.71,5.13-10.17,6.5399-15.84,8.39
			c-11.5,3.1599-23.4,4.5499-35.25,5.59c-14.53,0.83-29.24,1.95-43.68-0.4301c-3.62-0.73-7.99-1.38-9.88-5
			c-5.28-9.23-6.27-20.12-6.36-30.5499C870.09,1279.16,869.48,1274.23,870.21,1269.4z"/>
	</g>
	<g id="_x23_f5dac5ff">
		<path fill="#F5DAC5" stroke="#F5DAC5" stroke-width="0.0938" d="M552.87,1279.75c3.73,1.48,7.32,3.3,11.02,4.85
			c0.36-0.13,1.08-0.39,1.44-0.52c2.23-0.6699,4.58-2.5199,6.94-1.33c4.42,1.96,9.57,2.37,13.34,5.65
			c2.07,1.86,4.77,2.72,7.54,2.1799c2.36,1.8301,4.65,3.76,7.08,5.53c-1.7-0.48-3.41-0.87-5.12-1.25
			c-6.27,6.65-11.38,14.23-16.52,21.75c-2.8701,4.33-5.77,8.79-6.83,13.97c2.88,0.3,5.75,0.75,8.62,1.24
			c-14.05-0.12-28.1-0.3899-42.14-0.88c-1.08-0.49-2.12-0.99-3.16-1.48c1.12-0.63,2.25-1.24,3.38-1.84
			c1.8-5.09,5.21-9.52,6.08-14.9399c6.89-5.04,9.25-13.9701,15.8-19.3301c2.21-1.86,3.46-4.48,4.58-7.0599
			c-0.92,0.0499-1.84,0.11-2.75,0.1899c-2-1.51-4.33-2.45-6.73-3.09C554.59,1282.16,553.75,1280.9301,552.87,1279.75z"/>
	</g>
	<g id="_x23_efd5b2ff">
		<path fill="#EFD5B2" stroke="#EFD5B2" stroke-width="0.0938" d="M621.14,1296.14c8.09-5.6801,15.72-12.16,24.63-16.5601
			c4.09,5.39,9.42,9.64,14.06,14.54c9.87,9.4,19.48,19.0601,29.27,28.5601c3.85,4.1399,7.96,8.0299,11.95,12.0599
			c-11.47-0.28-22.94-0.45-34.41-0.88c1.77-0.37,3.51-0.83,5.27-1.24c-0.0099-1.48-0.0099-2.9399,0-4.38
			c-2.2599-0.1799-4.6-0.0599-6.78-0.7c-6.52-3.9401-13.59-6.89-20.51-10.03c-5.4-1.62-9.99-5-15.23-6.99
			c-3.71-1.76-7.56-3.13-11.38-4.59c-2.06-0.5701-1.88-3.15-2.68-4.7201C617.08,1299.3101,619,1297.58,621.14,1296.14z"/>
	</g>
	<g id="_x23_6c5126ff">
		<path fill="#6C5126" stroke="#6C5126" stroke-width="0.0938" d="M1012.14,1295.7c3.83-4.5699,9.37-6.88,14.98-8.4099
			c4.88,1.22,10.28,1.84,14.1,5.48c6.2001,5.22,8.02,14.2,5.49,21.74c-0.26-0.4-0.76-1.1801-1.02-1.5701
			c0.63-4.4399,0.9301-9.22-1.2899-13.2899c-2.7001-5.85-8.78-9.66-15.15-10.03c-7.77-0.23-14.15,5.08-17.72,11.58
			c-1.69,5.14-1.32,11.0801,1.64,15.7101c1.83,3.08,4.85,5.1699,7.77,7.15c0.32-0.4301,0.98-1.28,1.31-1.7001
			c0.78-0.16,2.34-0.47,3.12-0.62c17.02,26.12,34.6901,51.86,51.29,78.25c-16.1,0.55-32.2001,1.35-48.3101,1.46
			c-0.27-0.2699-0.8199-0.8099-1.09-1.08c-10.03-0.89-20.14-0.1-30.19-0.37c-31.68,0.0601-63.36-0.11-95.04-0.14
			c-5.01-0.13-9.9901-0.83-15-0.79c-18.78,0.1001-37.57-0.0399-56.34-0.2799c-0.78-3.8501-0.89-7.8-0.29-11.67
			c0.83-5.7,0.48-11.46,0.95-17.17c1.16-10.7699,0.27-21.6,0.59-32.3899c7.69-0.3701,15.38-0.0901,23.08-0.0701
			c55.64,0.48,111.29,0.5601,166.93,0.26c-0.08-3.8101,0.23-7.6801-0.48-11.4399c-2.34-1.9601-5.2599-3.15-7.36-5.3701
			c-3.64-3.99-5.67-9.5-5.13-14.8999c0.28-2.9301,1.59-5.76,1.08-8.73c0.02-0.38,0.06-1.16,0.07-1.55
			C1010.64,1295.75,1011.64,1295.72,1012.14,1295.7z"/>
		<path fill="#6C5126" stroke="#6C5126" stroke-width="0.0938" d="M1147,1336.92c7.55-0.5901,15.12-1.12,22.7-0.7001
			c2.63,19.36-0.1699,39.04,2.9401,58.36c-23.12,1.79-46.28,3.1001-69.4401,4.2201c-0.88-0.0701-1.73-0.12-2.58-0.16
			c-2.9301-5.71-6.8199-10.84-9.98-16.41c-5.4-8.09-9.6801-16.84-15.34-24.74c-4.5801-6.25-8.37-13.04-13.05-19.2
			c5.5-1.11,11.12-1.01,16.71-1.13C1101.64,1337.09,1124.3199,1337.08,1147,1336.92z"/>
	</g>
	<g id="_x23_b99c64ff">
		<path fill="#B99C64" stroke="#B99C64" stroke-width="0.0938" d="M1029.25,1289.62c6.37,0.37,12.45,4.1801,15.15,10.03
			c2.22,4.0699,1.9199,8.85,1.2899,13.2899c-2.3899-2.8999-4.58-5.9399-6.5-9.1499
			C1036.1899,1298.84,1032.2,1294.59,1029.25,1289.62z"/>
	</g>
	<g id="_x23_ecd4bcff">
		<path fill="#ECD4BC" stroke="#ECD4BC" stroke-width="0.0938" d="M578.59,1316.61c5.14-7.52,10.25-15.1,16.52-21.75
			c1.71,0.38,3.42,0.77,5.12,1.25c4.94,1.83,9.51,6.39,15.1,5.1c0.8,1.5701,0.62,4.15,2.68,4.7201c3.82,1.46,7.67,2.83,11.38,4.59
			c5.24,1.99,9.83,5.37,15.23,6.99c6.92,3.14,13.99,6.09,20.51,10.03c2.18,0.64,4.52,0.52,6.78,0.7
			c-0.0099,1.4401-0.0099,2.9,0,4.38c-1.7599,0.41-3.5,0.87-5.27,1.24c-28.75-0.5599-57.52-1.1-86.26-2.04
			c-2.87-0.49-5.74-0.9399-8.62-1.24C572.82,1325.4,575.72,1320.9399,578.59,1316.61z"/>
	</g>
	<g id="_x23_f4d1a7ff">
		<path fill="#F4D1A7" stroke="#F4D1A7" stroke-width="0.0938" d="M423.92,1314.9399c8.28-6.0699,15.56-13.3899,23.99-19.2699
			c-1.4,6.5299-4.39,12.5699-6.41,18.9099c-1.57,4.54-2.78,9.8401-7.32,12.41c-7.17,3.8-14.78,6.71-22.17,10.0601
			c-8.65,3.8099-17.31,7.6899-26.34,10.5399c-6.11,1.6801-11.84,5.67-14.42,11.61c-1.95,3.8301-2.1,8.28-3.89,12.16
			c-4.29,4.48-11.23,5.5701-17.09,4.29c-7.37-2.05-12.38-8.15-17.55-13.35c-7.51-6.9-15.37-13.42-23.66-19.3601
			c-4.13-3.36-8.99-5.75-12.78-9.5099c2.17,0.0099,4.5-0.2401,6.41,1.0499c5.21,3.0801,10.58,5.92,15.65,9.26
			c4.45,2.8,8.46,6.28,13.05,8.88c5.87,3.29,11.13,7.53,16.58,11.4401c2.57,1.7599,5.21,5.2699,8.7,3.62
			c7.38-3.51,9.87-12.14,15.21-17.7401c9.86-6.6699,21.1-11.1599,30.32-18.7999C409.49,1325.8,416.9,1320.63,423.92,1314.9399z"/>
	</g>
	<g id="_x23_ba9c65ff">
		<path fill="#BA9C65" stroke="#BA9C65" stroke-width="0.0938" d="M1011.53,1301.2c1.5099,1.54,3.0099,3.15,4.02,5.1001
			c2.82,5.4099,6.33,10.4299,9.82,15.4399c-0.78,0.15-2.34,0.46-3.12,0.62c-0.33,0.42-0.99,1.27-1.31,1.7001
			c-2.92-1.9801-5.94-4.0701-7.77-7.15C1010.21,1312.28,1009.84,1306.34,1011.53,1301.2z"/>
	</g>
	<g id="_x23_5b4827ff">
		<path fill="#5B4827" stroke="#5B4827" stroke-width="0.0938" d="M1054.58,1316.59c146.4301-0.87,292.8501,2.5601,439.14,8.5601
			c-3.7999,16.15-7.63,32.3099-11.25,48.5l-0.5599,0.22c-0.51,0.21-1.52,0.62-2.03,0.8199c-0.73,2.2101-1.87,4.27-3.65,5.8201
			c-0.9299-1.01-1.8199-1.97-2.71-2.9401c-2.1,2.12-4.28,4.9301-7.5701,4.89c-7.6599-0.0599-15.3099,1.3101-22.95,0.36
			c-3.79-0.5099-7.63-1.0599-11.41-0.25c-4.72,1-9.4399-1-14.15,0c0.0601,0.9401,0.14,1.9,0.2201,2.88
			c-10.5801-0.25-21.11,1.13-31.67,1.67c-54.61,3.67-109.3099,5.92-164.04,6.9301c-16.4399,0.3899-32.8899-0.0901-49.3099,0.5299
			c-3.11-19.3199-0.3101-39-2.9401-58.36c-7.58-0.4199-15.1499,0.11-22.7,0.7001c-22.6801,0.1599-45.36,0.1699-68.04,0.24
			c-5.59,0.12-11.21,0.02-16.71,1.13c-2.8-3.4501-5.26-7.14-7.4301-10.99C1054.61,1323.73,1054.63,1320.16,1054.58,1316.59z"/>
		<path fill="#5B4827" stroke="#5B4827" stroke-width="0.0938" d="M689.1,1322.6801c34.33-1.54,68.7-2.4701,103.05-3.5601
			c0.25,0.46,0.74,1.39,0.99,1.85c-1.29,5.26-2.93,10.4401-4.06,15.75c14.28,0.3,28.57,0.89,42.86,0.8401
			c-0.32,10.7899,0.57,21.62-0.59,32.3899c-0.47,5.7101-0.12,11.4701-0.95,17.17c-0.6,3.87-0.4901,7.8199,0.29,11.67
			c-5.4-1.8101-11.09-0.54-16.64-0.79c-6.38-0.17-12.76,0.3199-19.12-0.1801c-11.9-1.5199-23.93-0.5099-35.88-0.85
			c-9.4,0.55-18.69-1.1699-28.07-1.1899c-12.95-1.61-26.01-0.28-39.01-0.86c-3.59-0.29-7.18-1.15-10.78-0.62
			c-4.37,0.5599-8.79,1.0699-13.19,0.62c-13.61-1.88-27.38-0.38-41.05-1.0601c-7.59-0.5-15.38-3.24-22.86-0.61
			c-2.09,0.16-1.75,2.61-2.34,4.08c0.75,0.13,1.52,0.28,2.29,0.4401c-0.29,0.4-0.87,1.1799-1.16,1.5699
			c-0.04,1.99-0.31,4.01-1.74,5.55c-0.11-3.67-0.25-7.3201-0.3-10.97c-22.7-0.64-45.41-1.42-68.1201-1.77
			c-5.05-18.28-10.04-36.5601-15.16-54.8101c-0.55-2.2799-1.02-4.5699-1.47-6.84c7.3799,0.14,14.7599,0.36,22.15,0.4399
			c14.04,0.4901,28.09,0.76,42.14,0.88c28.74,0.9401,57.51,1.4801,86.26,2.04c11.47,0.4301,22.94,0.6,34.41,0.88
			C697.06,1330.71,692.95,1326.8199,689.1,1322.6801z"/>
		<path fill="#5B4827" stroke="#5B4827" stroke-width="0.0938" d="M780.93,1451.09c0.48,0.02,1.43,0.04,1.91,0.0601
			c-0.2,1.16-0.38,2.35-0.56,3.5599c12.48-1.58,25.11-0.2799,37.65-0.73c8.03-0.54,15.94,1.52,23.97,1.02
			c6.08-0.41,12.09,0.63,18.13,1.0699c5.9,0.4901,11.72-1.62,17.61-0.6599c5.42,0.87,10.91,0.61,16.38,0.5599
			c36,0.0901,72.01,0.01,108.02,0.04c7.37,0.04,14.76-2.28,22.08-0.4c11.24,1.35,22.64,0.16,33.9401,0.46
			c14.62-0.0699,29.23-0.08,43.85-0.4099c3.8099,0.37,9.45-1.3401,11.46,3c9.9,15.6799,20.6,30.84,30.33,46.62
			c0.39,1.87,0.7001,3.74,1.0601,5.64c-25.95,0.26-51.9-0.01-77.84,0.14c-3.05-0.3201-6.11,1.9099-6.4,5.0299
			c-0.91,7.64-1.3,15.37-1.02,23.0701c0.12,1.4299-0.6899,2.6899-1.28,3.96l-0.96,0.14c0.25-5.42,0.62-10.8201,0.9-16.23
			c0.49-6.2101,0.1799-12.55,2.0699-18.5601c-27.0599,0.0901-54.11,1.26-81.17,1.17c-65.35,0.5699-130.71,0.54-196.06-0.6801
			c-2.76-0.0399-5.5-0.35-8.22-0.6799c0.18-7.13,1.14-14.2101,1.36-21.3301C779.26,1475,778.92,1462.95,780.93,1451.09z"/>
		<path fill="#5B4827" stroke="#5B4827" stroke-width="0.0938" d="M1140.6801,1455.33c41.5299-0.47,83.0499-1.47,124.5599-2.5599
			c0.95,5.71,0.86,11.5,0.72,17.27c-0.2799,9.0299,0.4601,18.11-0.6,27.11c-0.36,4.02-0.73,8.15,0.24,12.13
			c4.54,0.63,9.14,0.15,13.7101,0.02c12.8899-0.87,25.83-0.38,38.73-0.78c11.4199-1.03,22.8999-0.77,34.36-0.79
			c-7.53,3.3301-16.0801-0.04-23.91,2.0601c-4.77,1.4099-9.72,0.22-14.5699,0.49c-7.2301,0.4199-14.4601,0-21.6801,0.1799
			c-9.48,0.36-19.05,1.4701-28.48-0.09c-5.58-0.8099-11.22-0.25-16.8201-0.36c-17.98-0.08-35.96,0.1-53.9299-0.0701
			c-5.85-0.0699-11.63,0.91-17.47,0.88c-11.79-17.9399-23.65-35.8199-35.41-53.7799
			C1140.27,1456.62,1140.55,1455.76,1140.6801,1455.33z"/>
		<path fill="#5B4827" stroke="#5B4827" stroke-width="0.0938" d="M693.42,1539.09c1.51,6.4601,0.1,13.12,0.72,19.6801
			c14.26,1.15,28.57,1.7999,42.87,2.33c1.61,0.01,3.23,0.39,4.64,1.2101c-10.85,9.74-19.25,21.73-27.4,33.71
			c-9.28-8.53-18.59-17.91-22.7-30.12C688.51,1557.1899,689.02,1547.24,693.42,1539.09z"/>
		<path fill="#5B4827" stroke="#5B4827" stroke-width="0.0938" d="M823.66,1564.1899c21,0.9301,42.06,0.17,63.05,1.2101
			c-13.83,11.24-25.14,25.09-36.72,38.52C839.58,1591.92,828.87,1579.46,823.66,1564.1899z"/>
	</g>
	<g id="_x23_564726ff">
		<path fill="#564726" stroke="#564726" stroke-width="0.0938" d="M1479.88,1374.6899c0.51-0.2,1.52-0.61,2.03-0.8199
			c-0.6901,7.88-3.2201,15.4301-4.79,23.16c-2.99,12.63-5.72,25.33-8.87,37.9299c-7.1801,0.77-13.98,3.3201-21.1,4.36
			c-8.6901,1.3-17.2001,3.53-25.9601,4.3401c-1.2-19.4-2.46-38.8-3.5299-58.2101c-0.0801-0.98-0.16-1.9399-0.2201-2.88
			c4.7101-1,9.4301,1,14.15,0c3.78-0.8099,7.62-0.2599,11.41,0.25c7.64,0.9501,15.29-0.4199,22.95-0.36
			c3.29,0.04,5.4701-2.77,7.5701-4.89c0.89,0.9701,1.78,1.9301,2.71,2.9401C1478.01,1378.96,1479.15,1376.9,1479.88,1374.6899z"/>
		<path fill="#564726" stroke="#564726" stroke-width="0.0938" d="M604.09,1393.25c7.48-2.63,15.27,0.11,22.86,0.61
			c13.67,0.6801,27.44-0.8199,41.05,1.0601c4.4,0.45,8.82-0.0601,13.19-0.62c3.6-0.53,7.19,0.33,10.78,0.62
			c13,0.58,26.0601-0.75,39.01,0.86c9.38,0.02,18.67,1.74,28.07,1.1899c11.95,0.3401,23.98-0.6699,35.88,0.85
			c6.36,0.5,12.74,0.01,19.12,0.1801c5.55,0.25,11.24-1.02,16.64,0.79c18.77,0.24,37.56,0.38,56.34,0.2799
			c5.0099-0.0399,9.99,0.66,15,0.79c31.68,0.03,63.36,0.2001,95.04,0.14c10.05,0.27,20.16-0.52,30.19,0.37
			c0.27,0.27,0.8199,0.8101,1.09,1.08c-1.2899,18.03-0.78,36.15-2.23,54.16c-7.32-1.88-14.71,0.4401-22.08,0.4
			c-36.0099-0.03-72.02,0.05-108.02-0.04c-5.47,0.05-10.96,0.3101-16.38-0.5599c-5.89-0.9601-11.71,1.15-17.61,0.6599
			c-6.04-0.4399-12.05-1.48-18.13-1.0699c-8.03,0.5-15.94-1.5601-23.97-1.02c-12.54,0.4501-25.17-0.85-37.65,0.73
			c0.18-1.21,0.36-2.3999,0.56-3.5599c-0.48-0.02-1.4301-0.04-1.91-0.0601c-20.89-0.24-41.8,0.03-62.69-0.48
			c-8.39-0.5699-16.8-0.5499-25.2-0.5699c-9.6-0.8-19.23-1.4501-28.86-1.7001c-13.33-0.1-26.64-1.25-39.92-2.38
			c-7.57-2.02-15.49-0.46-23.13-2.02c0-4.4399-0.26-8.86-0.58-13.2599c0.2-8.6001-0.07-17.2201,0.59-25.79
			c1.43-1.54,1.7-3.5601,1.74-5.55c0.29-0.39,0.87-1.1699,1.16-1.5699c-0.77-0.16-1.54-0.3101-2.29-0.4401
			C602.34,1395.86,602,1393.41,604.09,1393.25z"/>
	</g>
	<g id="_x23_f3d1a8ff">
		<path fill="#F3D1A8" stroke="#F3D1A8" stroke-width="0.0938" d="M483.09,1388.16c2.81-4.4601,4.7-9.55,8.5-13.3301
			c0.29,1.4601,0.58,2.9301,0.87,4.4301c-13.69,24.8199-27.69,49.49-43.28,73.1799c-7.77,12.65-16.73,24.5-24.84,36.9301
			c-2.7,4.41-7.03,8.26-8.07,13.4401c5.27,6.83,11.29,13.33,14.6,21.46c1.44,3.63,3.48,7.62,2.32,11.61
			c-1.51,3.88-5.78,5.37-9.28,6.9301c-12.94,5.49-26.66,8.71-39.88,13.4099c-18.47,7.0701-37.13,13.85-54.68,23.05
			c-7.95,3.59-15.07,8.63-22.61,12.96c0.36-2.1699,0.68-4.5699,2.7-5.83c4.49-3.48,8.66-7.4601,13.73-10.09
			c3.29-1.63,5.81-4.3601,8.92-6.25c16.93-10.1101,35.48-16.9701,53.74-24.2401c9.64-4.12,20.18-5.75,29.57-10.5099
			c2.63-1.8,3.77-5.2401,3.54-8.3301c-0.22-5.08-0.89-10.24-3.02-14.9c-1.51-3.75-3.77-7.2-4.79-11.12
			c2.15-6.72,7.49-11.84,11.05-17.84c7.76-8.6,12.53-19.3,19.48-28.51c4.03-5.98,8.57-11.63,11.89-18.0599
			c3.96-7.54,9.52-14.0701,13.33-21.6901C472.13,1405.87,477.23,1396.78,483.09,1388.16z"/>
	</g>
	<g id="_x23_896d3dff">
		<path fill="#896D3D" stroke="#896D3D" stroke-width="0.0938" d="M1385.99,1387.12c10.5601-0.54,21.09-1.92,31.67-1.67
			c1.0699,19.41,2.33,38.8101,3.5299,58.2101c-51.5599,7.9299-103.87,9.0599-155.95,9.11c-41.51,1.09-83.03,2.09-124.5599,2.5599
			c-3.67-1.21-4.9301-5.1799-7-8.0299c-4.5801-6.5701-7.9601-13.8601-12.65-20.3401c-5.9-9.4099-12.75-18.26-17.8301-28.1599
			c23.16-1.12,46.3201-2.4301,69.4401-4.2201c16.42-0.62,32.87-0.14,49.3099-0.5299
			C1276.6801,1393.04,1331.38,1390.79,1385.99,1387.12z"/>
		<path fill="#896D3D" stroke="#896D3D" stroke-width="0.0938" d="M532.72,1392.15c22.71,0.35,45.42,1.13,68.1201,1.77
			c0.05,3.6499,0.19,7.2999,0.3,10.97c-0.66,8.5699-0.39,17.1899-0.59,25.79c-0.32,4.3899-0.62,8.7899-0.66,13.21
			c-10.99-1.04-21.95-2.36-32.95-3.16c-6.98-0.5-13.96-1.5499-20.97-1.0599C541.45,1423.86,537.11,1407.99,532.72,1392.15z"/>
		<path fill="#896D3D" stroke="#896D3D" stroke-width="0.0938" d="M1028.35,1401.45c16.11-0.11,32.2101-0.9099,48.3101-1.46
			c2.0699,4.25,4.9199,8.03,7.52,11.96c9.2599,14.3401,18.97,28.39,27.8999,42.9401c-2.73,0.29-5.45,0.61-8.1699,0.77
			c-14.62,0.33-29.23,0.34-43.85,0.4099c-11.3-0.2999-22.7001,0.89-33.9401-0.46
			C1027.5699,1437.6,1027.0601,1419.48,1028.35,1401.45z"/>
		<path fill="#896D3D" stroke="#896D3D" stroke-width="0.0938" d="M1413.37,1505.63c13.1,0.09,26.02-2.76,39.12-2.89
			c-3.4299,16.54-7.34,32.98-11.3199,49.4c-0.03-0.6801-0.1001-2.04-0.13-2.72c-4.3,0.5499-8.6001,1.0599-12.91,1.51
			c3.28-7.9801,8.17-15.17,13.91-21.5701c-9.17,2.05-18.12,5.04-26.86,8.46c-1.9501-10.48-3.8501-20.99-5.17-31.5599
			C1410.85,1506.1,1412.53,1505.79,1413.37,1505.63z"/>
		<path fill="#896D3D" stroke="#896D3D" stroke-width="0.0938" d="M693.7,1507.5c4.68-1.0601,9.48-0.53,14.22-0.37
			c18.9,0.1801,37.79,1.28,56.7,1.3c4.05-0.16,8.11-0.6801,12.16-0.15c2.72,0.33,5.46,0.64,8.22,0.6799
			c65.35,1.2201,130.71,1.25,196.06,0.6801c27.06,0.09,54.11-1.08,81.17-1.17c-1.89,6.01-1.58,12.35-2.0699,18.5601
			c-0.28,5.4099-0.65,10.8099-0.9,16.23l0.96-0.14l0.86-0.14c-15.0499,5.21-29.24,13.01-41.09,23.71
			c-9.65-0.8899-19.36-0.2599-29.02-0.4299c-11.56-0.05-23.12-0.11-34.68-0.36c0.34-7.73,3.91-14.9301,8.88-20.72
			c4.02-5.14,9.2-9.14,13.93-13.5701c-12.55,1.05-24.93,3.59-37.18,6.4501c-20.05,5.09-39.29,14-55.21,27.34
			c-20.9901-1.04-42.05-0.28-63.05-1.2101c-3.31-8.7899-1.92-18.7699,2.94-26.7c3.39-5.58,9.2-8.88,13.78-13.33
			c-7.91-0.0601-15.58,2.08-23.32,3.4299c-27.3,5.4601-54.81,15.3401-75.41,34.7201c-1.41-0.8201-3.03-1.2001-4.64-1.2101
			c-14.3-0.53-28.61-1.1799-42.87-2.33c-0.62-6.5601,0.79-13.22-0.72-19.6801c4.16-8.63,11.54-14.75,18.59-20.9099
			c-6.01,0.6499-11.94,1.7999-17.89,2.8199C693.98,1516.5,693.87,1511.99,693.7,1507.5z"/>
	</g>
	<g id="_x23_6c4e2aff">
		<path fill="#6C4E2A" stroke="#6C4E2A" stroke-width="0.0938" d="M599.89,1443.89c0.04-4.42,0.34-8.8201,0.66-13.21
			c0.32,4.3999,0.58,8.8199,0.58,13.2599c7.64,1.5601,15.56,0,23.13,2.02c9.49,1.5601,19.16,1.5901,28.73,2.4701
			c3.72,0.35,7.46,0.13,11.19-0.0901c9.63,0.25,19.26,0.9,28.86,1.7001c8.4,0.02,16.81,0,25.2,0.5699
			c20.89,0.51,41.8,0.24,62.69,0.48c-2.01,11.86-1.67,23.91-2.79,35.86c-0.22,7.12-1.18,14.2001-1.36,21.3301
			c-4.05-0.53-8.11-0.01-12.16,0.15c-18.91-0.02-37.8-1.12-56.7-1.3c-4.74-0.16-9.54-0.6901-14.22,0.37
			c-5.84,1.11-11.79,0.4301-17.69,0.62c-16.01,0.0699-32.03,0.01-48.04-0.3099c-11.87-1.1101-23.8-0.3301-35.67-1.2401
			c-9.02-0.7899-18.08-0.34-27.11-0.95c-0.11,0.38-0.34,1.15-0.46,1.53c-0.67-2.34-1.38-4.66-1.97-7.01
			c-5.15-19.3-10.51-38.55-15.97-57.76c-0.21-0.6801-0.61-2.03-0.82-2.71c7.01-0.49,13.9901,0.5599,20.97,1.0599
			C577.94,1441.53,588.9,1442.85,599.89,1443.89z"/>
		<path fill="#6C4E2A" stroke="#6C4E2A" stroke-width="0.0938" d="M1447.15,1439.3199c7.12-1.0399,13.9199-3.59,21.1-4.36
			c-1.1801,5.11-2.29,10.25-3.5601,15.3501c-2.3099,9.3799-4.46,18.7999-6.61,28.22c-1.3199,5.2899-2.1599,10.6899-3.4099,15.99
			c-0.8201,2.71-1.64,5.4299-2.1801,8.22c-13.1,0.13-26.02,2.98-39.12,2.89c-5.47-0.4401-10.9,0.61-16.36,0.4301
			c-8.35-0.26-16.63,1.0199-24.97,0.98c-6.55,0.2999-13.15-0.41-19.64,0.6899c-11.4601,0.02-22.9401-0.24-34.36,0.79
			c-12.9,0.4-25.8401-0.09-38.73,0.78c-4.5701,0.13-9.17,0.61-13.7101-0.02c-0.97-3.98-0.6-8.11-0.24-12.13
			c1.0601-9,0.3201-18.0801,0.6-27.11c0.14-5.77,0.23-11.5601-0.72-17.27c52.08-0.05,104.39-1.1801,155.95-9.11
			C1429.95,1442.85,1438.46,1440.62,1447.15,1439.3199z"/>
		<path fill="#6C4E2A" stroke="#6C4E2A" stroke-width="0.0938" d="M1139.03,1564.14c5.5,0.2,11.03-0.83,16.5,0.13
			c-15.01,11.36-28.3301,25.1899-37.91,41.47c-5.38-4.4299-9.98-9.71-14.25-15.1899c-5.48-7.14-9.41-15.76-9.66-24.8601
			c9.0701-0.72,18.1901-0.71,27.29-0.7899C1127.01,1564.6801,1133,1563.9399,1139.03,1564.14z"/>
		<path fill="#6C4E2A" stroke="#6C4E2A" stroke-width="0.0938" d="M956.29,1565.9c11.56,0.25,23.12,0.3099,34.68,0.36
			c9.66,0.17,19.3701-0.46,29.02,0.4299c-12.68,11.3501-22.18,25.63-30.92,40.1001c-9.65-5.9401-18.85-12.9401-25.84-21.9401
			C959.01,1579.4399,956.41,1572.77,956.29,1565.9z"/>
	</g>
	<g id="_x23_93abc5ff">
		<path fill="#93ABC5" stroke="#93ABC5" stroke-width="0.0938" d="M546.79,1442.38c5.46,19.21,10.82,38.46,15.97,57.76
			c-30.66-2.1-61.34,3.22-90.81,11.37c31.65,6.23,64.01,9.01,96.25,8.62c2.7,10.53,5.81,20.97,8.02,31.64
			c1.4901,5.58,3.46,11.03,5.0601,16.59c6.4-3.91,12.29-8.58,18.71-12.45c28.46-18.1801,61.09-28.79,94.13-34.91
			c5.95-1.02,11.88-2.17,17.89-2.8199c-7.05,6.1599-14.43,12.2799-18.59,20.9099c-4.4,8.15-4.91,18.1-1.87,26.8101
			c4.11,12.21,13.42,21.59,22.7,30.12c8.15-11.98,16.55-23.97,27.4-33.71c20.6-19.38,48.11-29.26,75.41-34.7201
			c7.74-1.35,15.41-3.49,23.32-3.4299c-4.58,4.45-10.39,7.75-13.78,13.33c-4.86,7.9301-6.25,17.91-2.94,26.7
			c5.21,15.27,15.92,27.7301,26.33,39.7301c11.58-13.4301,22.89-27.28,36.72-38.52c15.92-13.34,35.16-22.25,55.21-27.34
			c12.25-2.8601,24.63-5.4,37.18-6.4501c-4.73,4.4301-9.91,8.4301-13.93,13.5701c-4.97,5.7899-8.54,12.99-8.88,20.72
			c0.12,6.87,2.72,13.5399,6.94,18.95c6.99,9,16.19,16,25.84,21.9401c8.74-14.4701,18.24-28.75,30.92-40.1001
			c11.85-10.7,26.04-18.5,41.09-23.71c17.54-5.5599,35.8101-8.9299,54.1901-9.8199c-5.9,4.75-11.85,9.6699-16.02,16.1
			c-3.4,4.8-5.04,10.62-5.54,16.4299c0.25,9.1001,4.1801,17.7201,9.66,24.8601c4.27,5.48,8.87,10.76,14.25,15.1899
			c9.58-16.28,22.9-30.11,37.91-41.47c6.13-4.5,12.63-8.46,19.0499-12.52c1.6901,0.26,2.9401,1.4,3.8101,2.86
			c16.16,24.9,32.62,49.62,48.87,74.47l-0.09,1.1001c-7.74-1.0901-15.41-2.7301-23.2001-3.3301
			c-25.36-2.2899-50.84,1.1901-75.58,6.66c-5.75,1.4299-11.63,2.4299-17.17,4.58c23.49,5.01,47.54,6.9701,71.49,8.36
			c18.4,0.6101,36.8401,0.5,55.2201-0.71c7.25,9.98,13.75,20.49,20.46,30.84c8.41,2.49,17.39,2.3301,25.77-0.23
			c-3.3101-6.33-7.6901-12.01-11.42-18.08c-3.1899-5.3101-7.42-9.99-9.78-15.76c1.62-0.0601,3.3401,0.02,5.01,0.04
			c-2.7999-0.7101-6.25-0.8501-7.9199-3.55c-4.8501-7.1801-9.63-14.41-14.3201-21.6801c-4.26-6.88-9.25-13.2899-13.0699-20.4299
			c10.37-15.52,24.6-28.13,40.5599-37.67c27.72-16.53,59.14-25.65,90.5701-32.01c-7.6901,6.9301-15.28,14.49-19.51,24.11
			c-6.1901,13.5901-3.4301,29.3601,2.5,42.53c11.08-13.1899,22.24-26.5399,35.9-37.1799c9.87-7.78,20.88-14.0801,32.5-18.8501
			c8.74-3.4199,17.6899-6.4099,26.86-8.46c-5.74,6.4-10.63,13.59-13.91,21.5701c-3.1,8-4.3,16.8899-2.38,25.34
			c1.22,5.02,2.5699,10.39,6.39,14.16c3.63-12.6001,5.86-25.5701,9.03-38.29c3.98-16.42,7.89-32.86,11.3199-49.4
			c0.54-2.79,1.36-5.51,2.1801-8.22c21.9299,3.2999,44.2,3,66.33,2.83c16.77-0.52,33.58-1.33,50.21-3.73
			c-8.24-3.59-16.98-5.77-25.5499-8.34c-21.26-6.3-43.55-9.6-65.7201-7.97c-7.3199,0.09-14.5499,1.7999-21.86,1.22
			c2.15-9.42,4.3-18.8401,6.61-28.22c75.3501,9.8899,150.5801,22.23,223.9901,42.1699c33.4299,9.4,66.7899,20.04,97.6599,36.1801
			c12.89,6.87,25.4501,14.85,35.54,25.52c6.9399,7.5699,12.61,17.2599,12.23,27.85c-0.4299,11.58-7.4,21.73-15.59,29.4199
			c-8.1801,8.16-18.16,14.16-28.0801,19.9301c-52.6599,29.35-110.7799,47.16-169.1799,61.01
			c-76.1,17.5599-153.64,28.08-231.3101,35.65c-89.76,8.62-179.88,13-270.01,15.21c-67.3199,1.6-134.6699,1.98-201.9999,1.34
			c-102.09-3.9099-204.16-9.26-305.99-17.71c-94.09-7.96-188.19-17.95-280.99-35.79c-43.58-8.58-87.02-18.8199-128.69-34.39
			c-19.1-7.2799-37.87-15.75-55.02-26.95c-11.49-7.52-22.24-16.4399-30.54-27.46c-1.3-1.8401-3.05-3.5801-3.21-5.9301
			c-0.47-3.59-2.32-6.83-2.76-10.42c-1.65-9.45,1.89-19.0399,7.54-26.5399c7.14-9.55,16.81-16.86,26.78-23.24
			c18.14-11.29,37.93-19.62,57.93-27.01c39.34-14.22,80.03-24.35,120.92-33.04c23.11-4.83,46.32-9.28,69.64-13.01
			c-2.38,7.36-4.77,14.73-7.34,22.04c-1.55,4.28-2.56,8.9399-5.55,12.54c-8.8,11-18.9,20.88-29.24,30.4199
			c-20.19-6-41.35-9.08-62.42-8.0599c-21.06,0.72-41.85,4.6499-62.28,9.63c-2.31,0.58-4.58,1.3099-6.84,2.09
			c22.05,4.6799,44.59,6.8199,67.07,8.1c16.8,1,33.64,0.21,50.45,0.51c-16.87,14.67-35.11,27.62-53.33,40.53
			c-5.64,3.4199-11.93,5.5-18.02,7.97c-2.04,0.52-4.11,0.96-6.16,1.4401c1.88,4.4199,4.85,8.2799,8.43,11.47
			c-8.47,0.0699-16.87-1.35-25.35-1.03c-25.56,0.35-51.03,4.65-75.55,11.77c8.3,2.64,17.09,3.16,25.65,4.59
			c43.43,5.52,87.6,5.84,131.04,0.3201c-7.72-3.17-15.78-5.4-23.74-7.88c-4.02-1.1901-8.06-2.55-12.28-2.74
			c6.56-4.42,11.86-10.4701,18.65-14.5801c7.54-4.33,14.66-9.37,22.61-12.96c17.55-9.2001,36.21-15.98,54.68-23.05
			c13.22-4.7,26.94-7.9199,39.88-13.4099c3.5-1.5601,7.77-3.05,9.28-6.9301c1.16-3.99-0.88-7.98-2.32-11.61
			c-3.31-8.13-9.33-14.63-14.6-21.46c1.04-5.1801,5.37-9.03,8.07-13.4401c8.11-12.4301,17.07-24.28,24.84-36.9301
			c-0.29,0.52-0.86,1.54-1.15,2.0601C480.9,1450.04,513.82,1446,546.79,1442.38 M1573.65,1536.61c1.39,0.65,2.7999,1.24,4.36,1.5
			c28.04,4.84,56.5,7.4501,84.96,7.35c22.4601,0.12,45-0.6899,67.26-3.84c-13.22-5.02-26.84-9.01-40.61-12.2
			C1651.23,1520.48,1611.15,1526.3101,1573.65,1536.61 M370.93,1607.58c2.68,0.67,5.38,1.25,8.11,1.6901
			c49.23,8.23,99.67,9.29,149.21,3.24c-6.73-3.45-14.23-5.04-21.38-7.4301c-20.03-6.0399-40.89-9.9099-61.88-9.2999
			C419.9,1596.26,395.06,1600.9,370.93,1607.58 M1466.9301,1607.49c5.5099,1.88,11.37,2.25,17.0699,3.33
			c46.34,6.9801,93.62,7.3,140.12,1.7301c-10.7-4.5601-22.02-7.4801-33.22-10.52c-19.79-5.37-40.49-7.27-60.9301-5.6901
			C1508.59,1597.53,1487.59,1602.0699,1466.9301,1607.49 M896.37,1647.46c-7.54,1.89-15.38,2.9601-22.59,5.9601
			c43.55,8.0599,88.15,10.36,132.3,7c8.31-0.88,16.78-0.88,24.96-2.78c-20.78-7.23-42.09-13.52-64.0601-15.77
			C943.34,1639.89,919.52,1642.54,896.37,1647.46 M578.08,1659.29c-5.02,1.36-10.29,1.9299-15.04,4.1599
			c47.6,8.9401,96.46,10.74,144.65,6.0801c4.18-0.4601,8.48-0.42,12.49-1.85c-25.15-8.6801-51.24-16.4901-78.1-16.12
			C620.5,1651.08,599.05,1654.47,578.08,1659.29 M1305.04,1678.25c-3.17,0.88-6.6801,1.08-9.42,3.0601
			c30.77,5.6499,62.0699,8.62,93.36,8.4299c21.39,0.03,42.8301-1.0699,64.02-4.0699c-25.48-8.79-51.84-16.6001-79.04-16.5601
			C1350.6899,1669.03,1327.6,1672.8101,1305.04,1678.25 M747.28,1707.41c-4.91,1.15-10.04,1.76-14.58,4.0599
			c27.08,5.3401,54.71,7.87,82.29,8.4501c24.66,0.35,49.4-0.4601,73.85-3.78c-3.73-2.36-8.11-3.22-12.21-4.65
			c-21.51-6.96-43.89-12.37-66.63-11.91C788.85,1699.28,767.8,1702.52,747.28,1707.41 M1049.97,1711.47
			c48.7001,9.3,98.77,10.8,148.0601,5.91c3.0699-0.36,6.35-0.24,9.14-1.77c-26.17-8.7999-53.25-16.9-81.16-16.04
			C1100.25,1699.6801,1074.67,1704.4301,1049.97,1711.47z"/>
		<path fill="#93ABC5" stroke="#93ABC5" stroke-width="0.0938" d="M1195.91,1541.6801c15.96-7.3601,32.99-12.1801,50.01-16.4401
			c-11.3501,9.78-22.7101,21.24-25.9501,36.4301c-1.0599,4.8099-0.8099,9.76-1.01,14.6599
			c-7.5299-10.6899-14.4299-21.8199-21.83-32.6C1196.83,1543.22,1196.21,1542.1899,1195.91,1541.6801z"/>
	</g>
	<g id="_x23_678aa8ff">
		<path fill="#678AA8" stroke="#678AA8" stroke-width="0.0938" d="M1458.08,1478.53c7.3101,0.58,14.54-1.13,21.86-1.22
			c22.17-1.63,44.4601,1.6699,65.7201,7.97c8.5699,2.5699,17.3099,4.75,25.5499,8.34c-16.63,2.4-33.4399,3.21-50.21,3.73
			c-22.13,0.17-44.4,0.47-66.33-2.83C1455.92,1489.22,1456.76,1483.8199,1458.08,1478.53z"/>
		<path fill="#678AA8" stroke="#678AA8" stroke-width="0.0938" d="M471.95,1511.51c29.47-8.15,60.15-13.47,90.81-11.37
			c0.59,2.35,1.3,4.67,1.97,7.01c1.17,4.3199,2.32,8.65,3.47,12.98C535.96,1520.52,503.6,1517.74,471.95,1511.51z"/>
		<path fill="#678AA8" stroke="#678AA8" stroke-width="0.0938" d="M226.72,1529.67c20.43-4.9801,41.22-8.91,62.28-9.63
			c21.07-1.02,42.23,2.0599,62.42,8.0599c-4.52,4.26-9.21,8.34-14.02,12.27c-16.81-0.3-33.65,0.49-50.45-0.51
			c-22.48-1.28-45.02-3.42-67.07-8.1C222.14,1530.98,224.41,1530.25,226.72,1529.67z"/>
		<path fill="#678AA8" stroke="#678AA8" stroke-width="0.0938" d="M1573.65,1536.61c37.5-10.2999,77.58-16.13,115.97-7.1899
			c13.77,3.1899,27.39,7.1799,40.61,12.2c-22.26,3.15-44.7999,3.96-67.26,3.84c-28.46,0.1001-56.9199-2.51-84.96-7.35
			C1576.45,1537.85,1575.04,1537.26,1573.65,1536.61z"/>
		<path fill="#678AA8" stroke="#678AA8" stroke-width="0.0938" d="M370.93,1607.58c24.13-6.6799,48.97-11.3199,74.06-11.7999
			c20.99-0.61,41.85,3.26,61.88,9.2999c7.15,2.39,14.65,3.9801,21.38,7.4301c-49.54,6.05-99.98,4.99-149.21-3.24
			C376.31,1608.83,373.61,1608.25,370.93,1607.58z"/>
		<path fill="#678AA8" stroke="#678AA8" stroke-width="0.0938" d="M1466.9301,1607.49c20.6599-5.42,41.6599-9.96,63.0399-11.15
			c20.4401-1.58,41.14,0.3201,60.9301,5.6901c11.2,3.0399,22.52,5.96,33.22,10.52c-46.5,5.5699-93.78,5.25-140.12-1.7301
			C1478.3,1609.74,1472.4399,1609.37,1466.9301,1607.49z"/>
		<path fill="#678AA8" stroke="#678AA8" stroke-width="0.0938" d="M167.42,1612.52c24.52-7.12,49.99-11.42,75.55-11.77
			c8.48-0.3199,16.88,1.1,25.35,1.03c5.51,4.2999,12.76,7.77,19.77,5.03c4.22,0.1899,8.26,1.5499,12.28,2.74
			c7.96,2.48,16.02,4.71,23.74,7.88c-43.44,5.5199-87.61,5.2-131.04-0.3201C184.51,1615.6801,175.72,1615.16,167.42,1612.52z"/>
		<path fill="#678AA8" stroke="#678AA8" stroke-width="0.0938" d="M1128.39,1633.51c24.74-5.47,50.22-8.95,75.58-6.66
			c7.79,0.6,15.4601,2.24,23.2001,3.3301l0.09-1.1001c3.4,5.65,6.55,11.4801,10.67,16.66c-18.38,1.21-36.8201,1.3201-55.2201,0.71
			c-23.95-1.3899-48-3.35-71.49-8.36C1116.76,1635.9399,1122.64,1634.9399,1128.39,1633.51z"/>
		<path fill="#678AA8" stroke="#678AA8" stroke-width="0.0938" d="M896.37,1647.46c23.15-4.9199,46.97-7.5699,70.61-5.59
			c21.97,2.25,43.28,8.54,64.0601,15.77c-8.1801,1.9-16.65,1.9-24.96,2.78c-44.15,3.36-88.75,1.0599-132.3-7
			C880.99,1650.42,888.83,1649.35,896.37,1647.46z"/>
		<path fill="#678AA8" stroke="#678AA8" stroke-width="0.0938" d="M578.08,1659.29c20.97-4.8201,42.42-8.2101,64-7.73
			c26.86-0.3701,52.95,7.4399,78.1,16.12c-4.01,1.4299-8.31,1.3899-12.49,1.85c-48.19,4.6599-97.05,2.86-144.65-6.0801
			C567.79,1661.22,573.06,1660.65,578.08,1659.29z"/>
		<path fill="#678AA8" stroke="#678AA8" stroke-width="0.0938" d="M1305.04,1678.25c22.5599-5.4399,45.6499-9.22,68.9199-9.14
			c27.2001-0.04,53.5601,7.77,79.04,16.5601c-21.1899,3-42.63,4.1-64.02,4.0699c-31.29,0.1901-62.59-2.78-93.36-8.4299
			C1298.36,1679.33,1301.87,1679.13,1305.04,1678.25z"/>
		<path fill="#678AA8" stroke="#678AA8" stroke-width="0.0938" d="M747.28,1707.41c20.52-4.89,41.5699-8.13,62.72-7.8301
			c22.74-0.46,45.12,4.9501,66.63,11.91c4.1,1.4301,8.48,2.29,12.21,4.65c-24.45,3.3199-49.19,4.13-73.85,3.78
			c-27.58-0.5801-55.21-3.11-82.29-8.4501C737.24,1709.17,742.37,1708.5601,747.28,1707.41z"/>
		<path fill="#678AA8" stroke="#678AA8" stroke-width="0.0938" d="M1049.97,1711.47c24.7001-7.0399,50.28-11.7899,76.04-11.9
			c27.91-0.86,54.99,7.2401,81.16,16.04c-2.79,1.53-6.0701,1.41-9.14,1.77C1148.74,1722.27,1098.67,1720.77,1049.97,1711.47z"/>
	</g>
	<g id="_x23_56442cff">
		<path fill="#56442C" stroke="#56442C" stroke-width="0.0938" d="M565.19,1505.62c9.03,0.61,18.09,0.16,27.11,0.95
			c11.87,0.91,23.8,0.13,35.67,1.2401c16.01,0.3199,32.03,0.3799,48.04,0.3099c5.9-0.1899,11.85,0.49,17.69-0.62
			c0.17,4.49,0.28,9,0.42,13.5c-33.04,6.12-65.67,16.73-94.13,34.91c-6.42,3.87-12.31,8.5399-18.71,12.45
			c-1.6-5.5599-3.57-11.01-5.0601-16.59c-2.21-10.67-5.3199-21.11-8.02-31.64c-1.15-4.33-2.3-8.66-3.47-12.98
			C564.85,1506.77,565.08,1506,565.19,1505.62z"/>
		<path fill="#56442C" stroke="#56442C" stroke-width="0.0938" d="M1397.01,1506.0601c5.46,0.1799,10.89-0.8701,16.36-0.4301
			c-0.84,0.16-2.52,0.47-3.36,0.63c1.3199,10.5699,3.22,21.08,5.17,31.5599c-11.62,4.77-22.63,11.0701-32.5,18.8501
			c-13.66,10.64-24.8201,23.99-35.9,37.1799c-5.9301-13.1699-8.6901-28.9399-2.5-42.53c4.23-9.62,11.8199-17.1799,19.51-24.11
			c-31.4301,6.36-62.8501,15.48-90.5701,32.01c-15.96,9.54-30.1899,22.15-40.5599,37.67c-3.61-4.35-6.4501-9.24-9.6801-13.85
			c-4.63-6.0701-3.23-14.27-3.01-21.37c3.24-15.1901,14.6-26.65,25.9501-36.4301c-17.02,4.26-34.05,9.08-50.01,16.4401
			c0.2999,0.5099,0.9199,1.5399,1.22,2.0499c-7.13-11.02-14.29-22.01-21.59-32.91c5.84,0.03,11.62-0.95,17.47-0.88
			c17.97,0.17,35.95-0.0099,53.9299,0.0701c5.6001,0.11,11.2401-0.45,16.8201,0.36c9.4299,1.5601,19,0.45,28.48,0.09
			c7.22-0.1799,14.45,0.24,21.6801-0.1799c4.85-0.27,9.7999,0.9199,14.5699-0.49c7.83-2.1001,16.38,1.27,23.91-2.0601
			c6.49-1.1,13.09-0.39,19.64-0.6899C1380.38,1507.08,1388.66,1505.8,1397.01,1506.0601z"/>
		<path fill="#56442C" stroke="#56442C" stroke-width="0.0938" d="M1146.76,1510.92c-0.36-1.9-0.67-3.77-1.0601-5.64
			c5.5901,8.13,11.1001,16.33,16.37,24.6899c4.39,6.63,9.0701,13.0801,13.04,19.99c-0.14,0.4401-0.4,1.3401-0.53,1.79
			c-6.4199,4.0601-12.9199,8.02-19.0499,12.52c-5.47-0.96-11,0.0699-16.5-0.13c-6.03-0.2001-12.02,0.54-18.03,0.76
			c-9.1,0.08-18.22,0.0699-27.29,0.7899c0.5-5.8099,2.14-11.6299,5.54-16.4299c4.17-6.4301,10.12-11.35,16.02-16.1
			c-18.38,0.89-36.65,4.26-54.1901,9.8199l-0.86,0.14c0.5901-1.27,1.4-2.53,1.28-3.96c-0.28-7.7001,0.11-15.4301,1.02-23.0701
			c0.29-3.12,3.35-5.35,6.4-5.0299C1094.86,1510.91,1120.8101,1511.1801,1146.76,1510.92z"/>
	</g>
	<g id="_x23_5a4927ff">
		<path fill="#5A4927" stroke="#5A4927" stroke-width="0.0938" d="M1428.13,1550.9301c4.3099-0.4501,8.61-0.9601,12.91-1.51
			c0.0299,0.6799,0.1,2.0399,0.13,2.72c-3.17,12.72-5.4,25.6899-9.03,38.29c-3.8201-3.77-5.17-9.14-6.39-14.16
			C1423.83,1567.8199,1425.03,1558.9301,1428.13,1550.9301z"/>
	</g>
</g>
</svg>
